<svg xmlns="http://www.w3.org/2000/svg" viewBox="0 0 275 44">
  <g fill="none" fill-rule="evenodd">
    <path fill="#3D3D3D" d="M197.939 22.272h-6.825v4.724h6.587v2.788h-6.587v9.356h-2.956V19.484h9.781v2.788"/>
    <path fill="#59C341" d="M203.3953077 29.256c0 2.172.7309615 3.956 2.1848077 5.352 1.4457692 1.4 3.1176923 2.1 5.0117308 2.1 2.055577 0 3.788077-.712 5.2015384-2.136 1.4134616-1.444 2.1201923-3.196 2.1201923-5.264 0-2.096-.698654-3.852-2.091924-5.268-1.389231-1.424-3.105577-2.136-5.153077-2.136-2.039423 0-3.759808.712-5.165192 2.136-1.405385 1.408-2.108077 3.148-2.108077 5.216zm-2.9803846-.032c0-2.768 1.009616-5.144 3.032885-7.128 2.015193-1.988 4.434231-2.98 7.257116-2.98 2.794616 0 5.185385 1 7.184423 3.004 2.003077 2.004 3.004616 4.408 3.004616 7.22 0 2.824-1.005577 5.22-3.01673 7.188-2.023269 1.98-4.4625 2.968-7.32173 2.968-2.532115 0-4.801731-.88-6.816923-2.636-2.217115-1.944-3.323654-4.488-3.323654-7.636z"/>
    <path fill="#3D3D3D" d="M247.2933846 36.352h1.3326923c1.328653 0 2.431153-.14 3.311538-.42.880385-.296 1.675962-.768 2.382693-1.412 1.457884-1.332 2.184807-3.068 2.184807-5.208 0-2.156-.718846-3.904-2.156538-5.244-1.296346-1.196-3.2025-1.796-5.7225-1.796h-1.332693v14.08zm-2.9561538 2.788V19.484h4.1111538c1.9707692 0 3.5255774.196 4.6684614.588 1.227692.38 2.338269 1.032 3.335769 1.948 2.02327 1.848 3.032885 4.28 3.032885 7.292 0 3.02-1.054038 5.464-3.158077 7.332-1.058077.932-2.164615 1.584-3.323654 1.948-1.086346.364-2.6209613.548-4.6078844.548h-4.0586538zM265.224 30.648l-6.397-11.164h3.401l4.478 7.856 4.495-7.856h3.4l-6.421 11.164v8.492h-2.956v-8.492m-27.223-11.164V33.94l-11.49-14.456h-2.847V39.14h2.957V24.66l11.485 14.48h2.851V19.484m-75.753423-3.844l-.3957693.236-4.5392308 2.728-.351347.224v4.808l-3.687116 2.208-.3675.228v4.804l-3.687115 2.208-.3675.228v6.28l.331153.228 4.535192 2.724.383654.236.387692-.232 3.78-2.204 3.731538 2.204.395769.232.391731-.236 3.6992302-2.192 3.493269 2.184.399808.252.4078842-.244 4.6401923-2.724.448269-.228v-6.28l-.3675-.228-3.687115-2.208v-4.804l-.3675-.228-3.6871156-2.208v-4.808l-.4684613-.224-4.6078843-2.728-.444231-.236zm.1171153.908l4.5917308 2.724v4.808l4.054616 2.432v4.808l4.054616 2.432v5.4l-4.624038 2.724-3.921346-2.436-4.115192 2.436-4.131346-2.436-4.111154 2.436-4.498846-2.724v-5.4l4.050577-2.432v-4.808l4.054616-2.432v-4.808l4.59577-2.724z"/>
    <path fill="#59C341" d="M168.834 24.116l-3.513 2.144-3.514-2.144v-4.292l3.514-2.144 3.513 2.144"/>
    <path fill="#3D3D3D" d="M168.834 38.596l-3.513 2.144-3.514-2.144v-4.288l3.514-2.144 3.513 2.144v4.288m8.105 0l-3.513 2.144-3.514-2.144v-4.288l3.514-2.144 3.513 2.144v4.288m-16.214 0l-3.647 2.144-3.647-2.144v-4.288l3.647-2.144 3.647 2.144v4.288m4.055-7.24l-3.514 2.144-3.513-2.144v-4.288l3.513-2.144 3.514 2.144v4.288m8.109 0l-3.514 2.144-3.513-2.144v-4.288l3.513-2.144 3.514 2.144v4.288m-19.413423-25.84l-.4846155 2.784h-.928846L153.31 1.188l2.3948077.008c.7390384 0 1.3084615.192 1.7123077.584.3998077.388.5734615.904.516923 1.548-.060577.68-.3311538 1.216-.8198076 1.608-.488654.388-1.1307693.584-1.9303847.584l-1.708269-.004zm.1332692-.768l1.5992307.008c.500769 0 .91673-.128 1.235769-.376.323077-.252.512884-.6.569423-1.048.0525-.4-.032308-.724-.254423-.972-.218077-.248-.537116-.38-.961154-.392L154.0975 1.96l-.488654 2.788zm7.858846-.928l-.42-.044c-.569423 0-1.0217307.256-1.348846.768l-.6542308 3.756h-.8925l.9248077-5.284.864231-.004-.133269.616c.375577-.492.823846-.732 1.336731-.72.105 0 .246346.024.424039.072l-.100961.84zm2.9076924-.9c.4482692.004.831923.124 1.1509616.36.3190384.232.5532692.556.7067307.968.153461.412.205961.864.153461 1.352l-.008077.108c-.060577.512-.218077.976-.464423 1.392-.246346.416-.565385.74-.957116.968-.387693.232-.819808.34-1.284231.328-.444231-.004-.827885-.128-1.146923-.36-.319039-.236-.55327-.552-.702693-.956-.149424-.404-.201924-.848-.1575-1.336.048461-.544.197884-1.036.448269-1.472.250384-.436.569423-.776.965192-1.016.39173-.236.823846-.352 1.296346-.336zm-1.8132692 2.832c-.0242308.204-.0242308.416 0 .636.0323077.388.149423.692.3473077.92.197885.228.464424.348.795577.356.298847.012.569423-.064.819808-.216.250385-.156.460385-.388.63-.7.173654-.316.282693-.66.331154-1.04.02827-.3.032308-.552.016154-.76-.040384-.392-.161538-.704-.359423-.932-.201923-.228-.468461-.348-.799615-.36-.460384-.012-.852115.168-1.175192.536-.319038.368-.520961.852-.593654 1.448l-.012115.112zm6.7401923 1.912c.3190385.008.6057692-.084.8601923-.276.2584615-.188.4240385-.44.5048077-.748l.8440385-.004c-.0484616.332-.1857693.632-.4038462.908-.218077.272-.4926923.484-.8238462.636-.3311538.156-.674423.228-1.0217307.216-.44423-.004-.819807-.12-1.12673-.344-.306923-.224-.533077-.532-.678461-.932-.145384-.4-.193846-.848-.145384-1.344l.024231-.244c.060577-.508.21-.964.44827-1.364.234231-.4.545192-.712.924808-.936.383654-.22.803654-.328 1.264039-.312.557308.012 1.005577.196 1.340769.556.3351927.356.5007697.812.5007697 1.36l-.831923-.004c-.008077-.344-.105-.624-.290769-.836-.1857694-.216-.4401924-.328-.759231-.34-.464423-.012-.848077.16-1.155.512-.306923.352-.5007692.844-.5734615 1.476l-.016154.124c-.020192.212-.024231.424-.008077.648.020192.38.1292306.68.323077.9.193846.224.4603843.34.799615.348zm5.2298077.732c-.6623077-.012-1.1832692-.256-1.5588462-.728-.375577-.472-.533077-1.076-.4725-1.812l.0242308-.208c.0565385-.524.2140385-1.004.4725-1.436.2584615-.432.5734615-.76.945-.98.3675-.22.7713462-.324 1.199423-.312.5492308.012.9813462.192 1.2923078.54.315.348.4846154.82.5128846 1.416.0121154.212.0040384.424-.0201923.636l-.0525.404h-3.485192c-.060577.48.020193.884.238269 1.22.218077.336.545193.512.977308.524.529039.012 1.013654-.22 1.461923-.704l.512885.432c-.226154.316-.512884.568-.868269.748-.351346.18-.747115.268-1.179231.26zm.5653846-4.74c-.3675-.012-.6865385.112-.9611538.372-.2746154.256-.4926924.64-.6542308 1.148l2.5926923.004.0201923-.08c.0525-.408-.0121154-.752-.1978846-1.024-.1857692-.268-.4523077-.412-.7996154-.42zm5.6659615 3.212c.0484616-.364-.1534615-.62-.6057692-.772l-.928846-.268c-.7794232-.268-1.1590386-.708-1.1307694-1.328.020192-.464.23423-.848.642115-1.144.403846-.3.884423-.444 1.429615-.436.541154.004.977307.16 1.316538.464.335192.304.49673.7.484615 1.188l-.888462-.004c.008077-.264-.076731-.476-.250385-.644-.173654-.164-.403847-.252-.694616-.26-.310962-.004-.573462.068-.799616.224-.205962.148-.327116.34-.359423.58-.040385.304.145384.528.565384.668l.452307.12c.609808.156 1.041923.36 1.300385.612.254423.252.375577.56.3553844.932-.0201924.328-.129231.616-.3271155.86s-.4603846.428-.7875.56c-.331154.128-.6784615.188-1.05.176-.5653846-.004-1.033846-.168-1.401346-.488-.3675-.324-.5451925-.736-.533077-1.24l.8925.004c0 .296.096923.536.286731.716.1898074.176.4523074.268.783461.268.3271154.004.605769-.064.8440385-.204.234231-.14.3715385-.336.403846-.584zm5.0965385 0c.0484615-.364-.1534615-.62-.6057692-.772l-.9248077-.268c-.783461-.268-1.163076-.708-1.134807-1.328.020193-.464.238269-.848.642116-1.144.407885-.3.884423-.444 1.433654-.436.537116.004.977308.16 1.3125.464.335193.304.50077.7.484616 1.188l-.884423-.004c.004039-.264-.080769-.476-.254423-.644-.173654-.164-.403846-.252-.694615-.26-.306923-.004-.573461.068-.799615.224-.205961.148-.327115.34-.359423.58-.040384.304.149423.528.569423.668l.44827.12c.609808.156 1.045962.36 1.300385.612.258462.252.375577.56.355385.932-.0201925.328-.129231.616-.3271155.86-.1938464.244-.460385.428-.7875.56-.3271156.128-.678462.188-1.05.176-.565385-.004-1.0338464-.168-1.4013464-.488-.3675-.324-.545192-.736-.529038-1.24l.8884618.004c0 .296.0969236.536.286731.716.189808.176.452308.268.783462.268.327115.004.605769-.064.844038-.204.238269-.14.3715386-.336.403846-.584zm4.103077 1.528c-.6663462-.012-1.1832693-.256-1.5588462-.728-.375577-.472-.533077-1.076-.4725-1.812l.0242307-.208c.0565385-.524.2140385-1.004.4725-1.436.254423-.432.569423-.76.9409616-.98.371539-.22.775385-.324 1.203462-.312.549231.012.981346.192 1.292308.54.310962.348.484616.82.512885 1.416.008077.212.004039.424-.020192.636l-.0525.404h-3.485192c-.060577.48.020193.884.238269 1.22.218077.336.545193.512.977308.524.525.012 1.013654-.22 1.457885-.704l.512885.432c-.222115.316-.508846.568-.86423.748-.351346.18-.747115.268-1.179231.26zm.5653845-4.74c-.3675-.012-.6865384.112-.9611538.372-.2746154.256-.4926923.64-.6542308 1.148l2.592692.004.020192-.08c.0525-.408-.016154-.752-.201923-1.024-.18577-.268-.44827-.412-.795577-.42zm2.616923 1.992c.068654-.536.218077-1.024.4482693-1.456.2342308-.432.5209616-.756.8642308-.972.3432692-.212.7188462-.316 1.1307692-.308.593654.016 1.05.228 1.3690385.644L197.470577.8h.8925l-1.3125 7.5h-.8117308l.0928846-.568c-.42.456-.9409616.676-1.5588462.664-.4926923-.012-.884423-.204-1.1792308-.572-.2907692-.372-.4482692-.868-.4725-1.488-.008077-.192 0-.42.0242308-.688zm.8601924.508c-.012116.464.072692.828.250384 1.084.177692.256.436154.388.779423.396.516923.02.973269-.236 1.373077-.772l.424038-2.44c-.193847-.484-.55327-.732-1.074231-.744-.351346-.008-.658269.096-.928846.316-.266539.22-.4725.528-.609808.92-.141346.396-.21.808-.214039 1.24zm11.772115-.476c-.064616.544-.214039 1.028-.448269 1.46-.234231.436-.516923.756-.848077.964-.331154.208-.702693.308-1.106539.296-.642116-.012-1.122693-.252-1.433654-.716l-.181731.616h-.823846l1.316539-7.5h.8925l-.537115 2.8c.428077-.468.945-.696 1.558846-.68.512884.012.908654.2 1.195384.56.28673.36.440192.86.456346 1.492 0 .212-.008077.412-.032308.608l-.008077.1zm-.848077-.512c.008077-.472-.072692-.836-.242308-1.092-.169616-.252-.432116-.384-.783462-.396-.557308-.012-1.02577.264-1.409423.832l-.399808 2.296c.197884.54.565384.816 1.110577.828.347307.012.650192-.092.912692-.308.2625-.22.460384-.524.593654-.916.137307-.392.205961-.808.218077-1.244zm3.4125 1.8l1.898077-3.952h.985384l-3.166154 6.164c-.440192.856-1.005577 1.276-1.696154 1.268-.121154-.004-.298846-.032-.537116-.088l.080769-.732.230192.024c.282692.012.525-.048.730961-.188.205961-.14.387692-.364.545192-.672l.319038-.604-.92077-5.172h.9328843l.5976922 3.952z"/>
    <g fill-rule="nonzero">
      <path fill="#000" d="M0 1h133.96v42.759H0z"/>
      <path fill="#FFF" d="M68.811 2.045h64.062v40.629H68.811z"/>
      <path fill="#F7B600" d="M69.857 36.083h61.93v5.546h-61.93z"/>
      <path fill="#1A1F71" d="M69.857 3.13h61.93v5.546h-61.93zm24.788045 11.654112l-6.3981982 15.2308413h-4.184985L80.923123 17.8383178c-.201201-.7635514-.362162-1.004673-.9255253-1.3261683-1.2397505-.595901-2.5518636-1.0281895-3.9033033-1.2859813l.0804805-.442056h6.72012c.90836.0040944 1.677645.669925 1.810811 1.5672897l1.649849 8.800934 4.104505-10.368224h4.184985zm16.377778 10.2476637c0-4.0186916-5.553153-4.259813-5.512913-6.0280374 0-.5626168.523123-1.1252336 1.69009-1.2859813 1.33886-.124848 2.686753.1110674 3.903303.6831776l.684084-3.2149533c-1.181486-.4530774-2.436507-.6846762-3.702102-.6831776-3.903303 0-6.639639 2.0897197-6.67988 5.0233645-.04024 2.2102804 1.971772 3.415888 3.460661 4.1392524 1.488889.7233644 2.052252 1.2457944 2.052252 1.888785 0 1.004673-1.247447 1.486916-2.374174 1.486916-1.41591.0390894-2.817314-.293476-4.064264-.964486l-.7243244 3.335514c1.3934174.558539 2.8849824.831858 4.3861864.8037383 4.144744.040186 6.840841-2.009346 6.881081-5.184113zm10.301501 4.9831776h3.661862l-3.178979-15.2308412h-3.38018c-.74181-.008875-1.412982.43798-1.69009 1.125234l-5.955556 14.105608h4.144745l.804805-2.290654h5.07027l.523123 2.290655zm-4.426426-5.3850468l2.092492-5.706542 1.207208 5.706542h-3.2997zm-16.619219-9.8457944l-3.2594598 15.230842h-3.9435435l3.2594593-15.230842h3.943544z"/>
      <path fill="#FFF" d="M18.8726727 40.182243v-2.411215c.0373056-.4081838-.106051-.812239-.39237-1.1059065-.286319-.2936676-.686944-.4475563-1.096519-.4211963-.5431735-.0215714-1.059544.2362717-1.368168.6831776-.2686016-.4491672-.764638-.7123373-1.2876878-.6831776-.458895-.0199827-.897209.1913365-1.166967.562617v-.482243h-.764565v3.8579438h.764564v-2.2102804c-.032193-.2678754.057622-.536047.244713-.7306757.187091-.194629.451731-.295191.721052-.273998.563363 0 .885285.361682.885285 1.004673v2.21028h.764564v-2.21028c-.032192-.267876.057622-.536047.244714-.730676.187091-.194629.451731-.295191.721052-.273998.563363 0 .885285.361683.885285 1.004673v2.210281h.845045zm12.554955-3.817757H30.019219v-1.1654206h-.7645645v1.1654206h-.804805v.6831776h.804805v1.8084112c0 .884112.321922 1.406542 1.2876876 1.406542.366491-.0072348.725658-.1038056 1.046247-.2813084l-.241441-.6831776c-.216928.135467-.468513.2052593-.724324.2009346-.171322.0141082-.339719-.050673-.457291-.175917-.117572-.125244-.171451-.2972435-.146312-.4670736v-1.8485982h1.408409v-.6429906zm7.1627627-.1205608c-.423425-.0087244-.8204617.2047813-1.0462463.562617v-.482243h-.764564v3.8579438h.764565v-2.1700935c0-.6429906.321922-1.0448598.845045-1.0448598.176846.007067.352329.0340286.523123.080374l.241442-.7233646c-.184451-.046417-.373275-.073356-.563363-.080373zm-10.8246246.4018692c-.4711004-.2877002-1.017773-.427687-1.5693694-.4018692-.9657658 0-1.5693694.442056-1.5693694 1.2056075 0 .6429907.4426427 1.004673 1.2876877 1.1252337l.4024024.040187c.442643.0803737.724325.2411214.724325.442056 0 .2813084-.321922.482243-.925525.482243-.461589.0096005-.913705-.1314988-1.287687-.4018692l-.402402.6028037c.488863.322812 1.063849.490878 1.64985.482243 1.126727 0 1.73033-.52243 1.73033-1.245795s-.482883-1.004673-1.327928-1.125234l-.402402-.040187c-.362162-.040187-.684084-.160748-.684084-.401869s.321922-.482243.764565-.482243c.421006.018338.832959.128047 1.207207.321495l.402403-.602804zm11.70991 1.6074766c-.033301.542425.167961 1.073062.5527437 1.4573345.3847825.3842727.9161234.585268 1.4592682.5520113.4950118.025992.9822094-.1314218 1.3681682-.442056l-.402403-.6028038c-.284273.2315166-.6392.3591212-1.006006.3616823-.671784-.0530802-1.189832-.6129918-1.189832-1.2859814 0-.67299.518048-1.232902 1.189831-1.285982.366806.002561.721733.130165 1.006006.361682l.402402-.602804c-.385959-.310634-.873157-.468048-1.368169-.442056-.536462-.064299-1.073517.115092-1.463291.488779-.389774.373687-.591165.902264-.548721 1.440192zm-5.4324326-2.0093458c-1.1267267 0-1.8912912.8037384-1.8912912 2.0093458-.034851.5357565.160248 1.061009.5365284 1.4444597.3762803.3834507.8981814.5888617 1.4352433.564886.5677925.0117796 1.1222124-.1727822 1.5693694-.5224298l-.402402-.562617c-.323249.250167-.717923.390936-1.126726.401869-.592611.022536-1.101972-.415986-1.166967-1.004673h2.857057v-.321496c0-1.205608-.724324-2.009346-1.81081-2.009346zm0 .7233645c.2633495-.012121.5201357.0842504.7103143.26658.1901786.1823295.2970743.43463.2956917.697906h-2.0924924c.0366717-.5643415.520994-.9942796 1.0864864-.964486zM23.621021 38.253271v-1.928972h-.7645645v.482243c-.298874-.3797188-.764585-.589761-1.2474475-.5626168-1.1112035 0-2.012012.8996148-2.012012 2.0093458s.9008085 2.0093458 2.012012 2.0093458c.4828625.0271444.9485734-.182898 1.2474475-.5626168v.482243h.7645645v-1.928972zm-3.1387387 0c.0437292-.6535868.6020185-1.1527185 1.2573047-1.1240777.655286.028641 1.167777.5745736 1.1541638 1.2294767-.0136134.654903-.5483495 1.179125-1.2042613 1.1805823-.3369393.008197-.6613842-.1275148-.8918992-.3730716-.230515-.245557-.3452142-.5776447-.315308-.9129097zm29.7375375-2.0093458c-.423425-.0087244-.8204617.2047813-1.0462462.562617v-.482243h-.7645646v3.8579438h.7645646v-2.1700935c0-.6429906.321922-1.0448598.845045-1.0448598.1768454.007067.3523286.0340286.523123.080374l.2414416-.7233646c-.1844517-.046417-.3732756-.073356-.5633634-.080373zm6.196997 3.375701c.0567226-.0060135.1137453.0082233.160961.040187.0402402 0 .0804805.0401868.1207207.0803737.0402402.040186.0804805.080373.0804805.12056s.0402402.080374.0402402.160747c.0060215.056647-.0082342.113594-.0402402.160747-.0402403.040187-.0402403.080373-.0804805.12056s-.0804805.080374-.1207207.080374c-.0402403 0-.0804805.040187-.160961.040187-.0567226.006013-.1137453-.008224-.160961-.040187-.0402402-.040187-.0804804-.040187-.1207207-.080374-.04024-.040187-.08048-.080374-.08048-.120561s-.04024-.080374-.04024-.160748c-.006021-.056648.008234-.113595.040241-.160748.04024-.040187.04024-.080374.080481-.120561s.080481-.080374.120721-.080374.120721-.040187.160961-.040187zm0 .6831775c.044234.0053174.088528-.0094277.1207207-.040187.0428023-.0037376.076738-.0376282.0804805-.0803737l.0804805-.0803738c0-.040187.0402402-.080374.0402402-.1205608.0053244-.0441755-.0094402-.0884107-.0402402-.1205607-.0037426-.0427455-.0376783-.0766362-.0804805-.080374L56.5375375 39.7c-.0402402 0-.0804804-.040187-.1207207-.040187-.044234-.0053173-.088528.0094278-.1207207.040187-.042802.0037377-.076737.0376283-.08048.0803738l-.08048.080374c0 .0401868-.04024.0803737-.04024.1205606-.005324.0441755.00944.0884108.04024.1205608.003743.0427455.037679.076636.080481.0803738l.080481.0803738c.032193.0307592.076487.0455043.120721.040187zm.0402403-.442056c.044235-.0053174.088528.0094277.120721.040187.04024.0401868.04024.0401868.04024.0803737 0 .040187 0 .040187-.04024.0803738-.021705.0218237-.049975.03594-.08048.040187l.120721.1205607h-.12072l-.12072-.120561h-.04024v.12056h-.08048v-.361683h.201201zm-.08048.040187v.0803737h.120721v-.0803738h-.12072zm-9.134535-1.6476637v-1.928972h-.764564v.482243c-.298874-.3797188-.764585-.589761-1.247447-.5626168-1.111203 0-2.012012.8996148-2.012012 2.0093458s.900809 2.0093458 2.012012 2.0093458c.482863.0271444.948574-.182898 1.247448-.5626168v.482243h.764565v-1.928972zm-3.098498 0c.043729-.6535868.602019-1.1527185 1.257305-1.1240777.655286.028641 1.167777.5745736 1.154164 1.2294767-.013613.654903-.548349 1.179125-1.204261 1.1805823-.764564.040187-1.207207-.5626168-1.207207-1.2859813zm10.905105 0v-3.4560747h-.764564v2.0093458c-.298874-.379718-.764584-.589761-1.247447-.562616-1.111203 0-2.012012.899615-2.012012 2.009346s.900809 2.009346 2.012012 2.009346c.482863.027145.948574-.182898 1.247448-.562617v.482243h.764565v-1.928972zm-3.138738 0c.043729-.6535868.602019-1.1527185 1.257305-1.1240777.655286.028641 1.167777.5745736 1.154164 1.2294767-.013613.654903-.548349 1.179125-1.204261 1.1805823-.336939.008197-.661384-.1275148-.891899-.3730716-.230515-.245557-.345214-.5776447-.315308-.9129097z"/>
      <path fill="#FF5F00" d="M26.88 7.068h13.963v22.746H26.88z"/>
      <path fill="#EB001B" d="M28.329069 18.4410374c.0012166-4.4330274 2.0318863-8.62221 5.512913-11.3728972-4.9887606-3.917236-11.9497457-4.1357147-17.174965-.5390564-5.2252192 3.5966582-7.4980798 10.17104-5.6078703 16.2210917 1.8902095 6.0500516 7.50339 10.1671338 13.849502 10.1581516 3.2416802.002279 6.389276-1.088008 8.9333333-3.094392-3.4810267-2.750687-5.5116964-6.93987-5.512913-11.372897z"/>
      <path fill="#F79E1B" d="M55.8936336 27.4027196v-.482243h.2012012v-.0803738h-.4828828v.0803738h.2012012v.482243h.0804804zm.9657658 0v-.5626168h-.160961l-.160961.4018692-.160961-.4018692h-.1609608v.5626168h.1207207v-.442056l.160961.3616822h.1207207l.160961-.3616822v.442056h.0804804zm.4426426-8.9616822c-.0061637 5.5316633-3.1702583 10.5756033-8.1515824 12.9945838-4.981324 2.4189804-10.907799 1.7895113-15.2682374-1.6216866 3.4819388-2.7499456 5.512805-6.9396154 5.512805-11.3728972 0-4.433282-2.0308662-8.6229516-5.512805-11.3728972 4.3604385-3.411198 10.2869133-4.040667 15.2682374-1.6216866 4.981324 2.4189805 8.1454187 7.4629205 8.1515824 12.9945838z"/>
    </g>
  </g>
</svg>
