<?xml version="1.0" encoding="UTF-8"?>
<!-- Created with Inkscape (http://www.inkscape.org/) -->
<svg width="200" height="76.941" version="1.1" xmlns="http://www.w3.org/2000/svg" xmlns:cc="http://creativecommons.org/ns#" xmlns:dc="http://purl.org/dc/elements/1.1/" xmlns:rdf="http://www.w3.org/1999/02/22-rdf-syntax-ns#" xmlns:xlink="http://www.w3.org/1999/xlink">
 <metadata>
  <rdf:RDF>
   <cc:Work rdf:about="">
    <dc:format>image/svg+xml</dc:format>
    <dc:type rdf:resource="http://purl.org/dc/dcmitype/StillImage"/>
    <dc:title/>
   </cc:Work>
  </rdf:RDF>
 </metadata>
 <g>
  <path d="m56.264 76.94h-56.264v-76.94h56.264z" fill="#e41509"/>
  <path d="m109.59 0.0010022h-45.177v76.94h45.177z" fill="#f39100"/>
  <path d="m141.04 0.0010022h-31.99v76.94h31.99z" fill="#cc0915"/>
  <path d="m200 0.0010022h-51.192v76.94h51.192z" fill="#20a134"/>
  <path d="m148.84 0.0010022h-7.7996v76.94h7.7996z" fill="#0976bd"/>
  <path d="m64.412 0.0010022h-8.1565v76.94h8.1565z" fill="#1f1a15"/>
 </g>
 <g transform="matrix(1.0081 0 0 -1.0081 76.314 36.841)">
  <path d="m0 0h3.241c2.172 0 3.393 0.317 4.214 1.09 0.714 0.666 1.032 1.663 1.032 3.232 0 0.923-0.196 2.196-1.13 3.02-0.788 0.74-2.04 1.043-4.322 1.043h-3.035zm0-13.726h3.963c4.459 0 6.119 1.256 6.119 4.63 0 1.579-0.387 2.685-1.181 3.381-1.014 0.861-2.383 1.197-4.888 1.197h-4.013zm-7.448-5.392v27.503h-3.136v5.341h14.855c4.659 0 7.326-0.682 9.199-2.352 1.647-1.482 2.517-3.549 2.517-5.974 0-2.967-1.387-5.412-3.805-6.708l-0.164-0.087 0.179-0.052c3.758-1.116 5.744-3.885 5.744-8.009 0-3.955-1.523-6.638-4.658-8.207-1.966-1.007-4.636-1.455-8.653-1.455zm72.477 0v15.368c0 1.559-0.132 2.643-0.794 3.56-0.662 0.868-1.741 1.325-3.115 1.325-1.43 0-2.596-0.529-3.378-1.534-0.825-1.085-0.995-2.494-0.995-4.276v-14.443h-7.141v20.099h-2.982v5.137h7.299l1.175-3.033 0.081 0.101c1.791 2.189 4.576 3.394 7.843 3.394 2.985 0 5.385-0.851 6.946-2.462 1.521-1.621 2.2-3.714 2.2-6.788v-16.448zm32.226-0.309c-2.727 0-4.404 1.045-5.992 3.725l-4.58 7.688h-2.179v-11.104h-7.14v30.329h-2.982v5.137h10.122v-19.022h2.485l5.09 8.792h7.136l-6.565-11.255 4.888-8.096c0.622-1.034 1.09-1.366 1.928-1.366 0.641 0 1.372 0.244 1.915 0.639l0.257 0.187-0.225-4.449-0.056-0.042c-0.938-0.718-2.51-1.163-4.102-1.163m-113.21-9e-3c-2.108 0-3.621 0.61-4.493 1.811-0.637 0.882-0.959 2.261-0.959 4.1v9.775c0 1.588-0.052 2.621-0.743 3.56-0.645 0.843-1.743 1.325-3.014 1.325-1.313 0-2.487-0.54-3.221-1.483-0.709-0.943-0.996-2.167-0.996-4.224v-14.546h-7.141v15.368c0 1.589-0.05 2.622-0.742 3.56-0.646 0.843-1.743 1.325-3.012 1.325-1.316 0-2.49-0.54-3.222-1.483-0.708-0.943-0.997-2.167-0.997-4.224v-14.546h-7.14v20.099h-2.983v5.137h7.3l1.169-3.02 0.083 0.107c1.649 2.145 4.47 3.375 7.743 3.375 3.444 0 5.954-1.079 7.461-3.207l0.055-0.08 0.064 0.074c1.018 1.2 3.346 3.213 7.535 3.213 3.389 0 6.046-1.136 7.473-3.201 1.028-1.46 1.466-3.285 1.466-6.101v-10.495c0-1.226 0.551-1.391 1.09-1.391 0.569 0 1.47 0.343 1.862 0.637l0.26 0.196-0.227-4.305-0.062-0.043c-0.927-0.634-2.624-1.313-4.609-1.313m48.125 12.656c-2.681 0-4.218-1.482-4.218-4.063 0-2.551 1.369-4.014 3.754-4.014 1.156 0 2.203 0.414 2.871 1.134 0.646 0.696 0.988 1.745 0.988 3.033v3.34l-0.05 0.018c-0.74 0.266-2.102 0.552-3.345 0.552m-2.416-12.8c-5.548 0-8.994 3.229-8.994 8.427 0 5.375 3.709 8.583 9.92 8.583 1.562 0 3.396-0.28 4.785-0.729l0.1-0.032v0.455c0 1.759-0.244 2.661-0.939 3.447-0.752 0.852-2.115 1.285-4.049 1.285-2.447 0-5.07-0.651-7.385-1.834l-0.223-0.113v4.972l0.091 0.04c2.342 1.071 5.396 1.659 8.598 1.659 4.019 0 6.895-0.871 8.79-2.663 1.541-1.438 2.258-3.498 2.258-6.485v-10.641c0-0.988 0.299-1.39 1.03-1.39 0.572 0 1.533 0.35 1.915 0.637l0.263 0.198-0.284-4.308-0.057-0.041c-1.157-0.81-2.945-1.314-4.663-1.314-2.141 0-3.754 0.861-4.425 2.36l-0.048 0.106-0.08-0.086c-1.41-1.587-3.879-2.533-6.603-2.533" fill="#fff"/>
 </g>
</svg>
