<?xml version="1.0" encoding="iso-8859-1"?>
<!DOCTYPE svg PUBLIC "-//W3C//DTD SVG 1.1//EN" "http://www.w3.org/Graphics/SVG/1.1/DTD/svg11.dtd">
<svg version="1.1" xmlns="http://www.w3.org/2000/svg" xmlns:xlink="http://www.w3.org/1999/xlink" x="0px" y="0px"
	  viewBox="0 0 146.301 28" preserveAspectRatio="xMidYMid meet" style="enable-background:new 0 0 146.301 28;" xml:space="preserve">
<g id="Layer_1_1_">
	<g id="Layer_x0020_1">
		<path style="fill:#076A54;" d="M47.955,14.285c-1.158,6.572-5.248,7.414-8.707,7.414c-3.414,0-6.571-2.361-5.684-7.443
			c0.691-3.985,3.053-7.654,8.797-7.385c4,0.196,6.361,2.948,5.579,7.414H47.955z M41.699,9.714c-1.263,0-2.691,0.646-3.504,4.542
			c-0.917,4.346,0.917,4.615,1.79,4.615c0.797,0,2.511-0.436,3.368-4.602c0.602-2.916,0.12-4.57-1.654-4.57V9.714z"/>
		<path style="fill:#076A54;" d="M56.677,21.127l-0.21,0.211c-0.857,0.166-1.865,0.301-2.406,0.301c-2.03,0-4.993-0.301-3.745-5.414
			c0.857-3.458,1.458-6.029,1.458-6.029l-1.88,0.061l-0.165-0.211l0.782-2.707l0.18-0.135h1.774l0.782-3.459l0.18-0.181
			c2.015-0.451,2.542-0.587,4.391-1.128l0.166,0.166l-1.173,4.662l2.737-0.061l0.105,0.18c-0.376,1.129-0.481,1.414-0.827,2.678
			l-0.21,0.18L56.15,10.18c0,0-0.496,2.076-1.203,4.979c-0.751,3.127-0.361,2.977,0.406,3.277c0.646,0.256,1.503-0.075,1.985-0.225
			l0.166,0.135l-0.797,2.781H56.677L56.677,21.127z"/>
		<path style="fill:#076A54;" d="M66.376,8.18c0.692-0.48,1.85-1.293,3.594-1.293c2.677,0,4.481,2.016,4.481,5.414
			c0,1.924-0.677,4.21-2.06,5.895c-2.662,3.248-6,3.218-8.842,3.218l-1.519,6.406l-0.181,0.135c-0.616,0-1.203-0.03-1.819-0.03
			c-0.917,0-1.714,0.061-2.707,0.076l-0.135-0.182c0,0,0.947-2.842,2.12-7.729c1.233-5.128,2.391-11.128,2.496-12.361l0.181-0.18
			l4.586-0.752l0.166,0.18L66.421,8.15L66.376,8.18z M64.21,18.451c1.278,0.15,2.647-0.271,3.594-1.053
			c1.068-0.918,2.045-2.783,2.045-4.828c0-2.255-1.443-2.525-1.985-2.525c-0.782,0-1.368,0.406-1.925,0.781l-1.714,7.609
			L64.21,18.451z"/><!-- Made for www.totalmoney.sk -->
		<path style="fill:#5CBF14;" d="M74.691,21.232c0.182-0.813,1.339-5.578,2.512-10.932c1.008-4.602,1.715-7.459,1.955-9.594
			l0.211-0.196L82.285,0l0.136,0.18L81.67,3.157l-1.234,5.144c1.129-0.617,2.196-1.203,3.91-1.203c2.646,0,4.873,1.789,4.873,5.172
			c0,1.369-0.438,3.94-2.227,6c-2.406,2.768-5.383,2.947-8.842,3.084h-1.474l-1.88,0.029l-0.135-0.166L74.691,21.232z
			 M77.955,19.277c1.519,0.076,3.76,0.031,5.488-1.158c1.985-1.367,2.918-3.759,2.918-5.473c0-2.437-1.475-3.384-3.188-3.384
			c-1.368,0-2.331,0.587-3.188,1.128c0,0-1.864,8.211-2.029,8.872V19.277z"/>
		<path style="fill:#5CBF14;" d="M103.624,12.842c-0.933,4.135-1.128,5.143-1.669,8.33l-0.195,0.195l-2.527,0.061l-0.135-0.18
			l0.195-1.068c-0.451,0.376-1.639,1.369-3.91,1.369c-2.736,0-4.962-1.926-4.962-5.279c0-2.119,1.022-4.42,2.15-5.759
			c2.496-2.917,5.955-3.083,8.421-3.083l3.699,0.03l0.135,0.21l-1.202,5.203V12.842L103.624,12.842z M101.639,9.443
			c-0.405,0-0.797-0.03-1.203-0.03c-0.887,0-2.631,0.06-4.21,1.128c-2.812,1.925-2.872,5.383-2.872,5.519
			c0,1.294,0.691,3.354,3.143,3.354c0.723,0,1.926-0.165,3.219-1.308L101.639,9.443L101.639,9.443z"/>
		<path style="fill:#5CBF14;" d="M116.902,21.217l-0.211,0.166l-2.736,0.075l-0.105-0.195c0.391-1.805,2.045-7.85,2.061-9.729
			c0.015-1.609-0.992-2.15-2.256-2.15c-1.67,0-2.768,0.827-3.564,1.429c-0.992,4.496-1.309,5.925-2.166,10.405l-0.18,0.166
			l-2.736,0.075l-0.136-0.195c0,0,0.812-3.278,1.549-6.692c0.571-2.676,1.053-4.871,1.263-6.707l0.195-0.18
			c1.264-0.166,1.549-0.211,2.843-0.481l0.136,0.181l-0.377,1.369c1.053-0.692,2.391-1.64,4.617-1.64
			c0.887,0,3.773,0.24,3.773,3.489c0,1.939-1.699,8.721-1.954,10.615H116.902L116.902,21.217z"/>
		<path style="fill:#5CBF14;" d="M127.143,13.218l4.15,7.909l-0.165,0.211l-2.978,0.075l-0.211-0.165
			c-0.691-1.88-3.729-7.805-3.729-7.805c-0.783,3.398-0.934,4.211-1.609,7.744l-0.195,0.166l-2.707,0.06l-0.105-0.165
			c0,0,1.429-5.94,2.662-11.443c0.586-2.572,1.473-6.646,1.834-9.113l0.181-0.166l2.917-0.48l0.166,0.18
			c-0.541,1.85-3.083,12.842-3.083,12.842c1.925-1.684,5.128-5.037,5.549-5.488l0.301-0.165h3.083l0.075,0.24
			c-0.767,0.602-2.165,1.88-2.677,2.331l-3.488,3.219L127.143,13.218z"/>
		<path style="fill:#076A54;" d="M0,13.232C0,5.924,5.925,0,13.218,0v4.781C8.557,4.797,4.782,8.57,4.782,13.232
			s3.79,8.451,8.451,8.451c4.646,0,8.451-3.744,8.451-8.48h4.782c0,7.338-5.925,13.263-13.233,13.263
			C5.925,26.466,0,20.541,0,13.232z"/>
		<path style="fill:#5CBF14;" d="M7.398,13.232c0-3.248,2.632-5.879,5.88-5.879s5.88,2.631,5.88,5.879s-2.632,5.865-5.865,5.865
			c-3.248,0-5.88-2.632-5.88-5.865H7.398z"/>
		<path style="fill:#076A54;" d="M17.338,5.805c0-1.865,1.504-3.369,3.369-3.369c1.864,0,3.368,1.504,3.368,3.369
			c0,1.864-1.504,3.367-3.368,3.367C18.842,9.172,17.338,7.669,17.338,5.805z"/>
		<path style="fill:#5CBF14;" d="M145.098,12.842c-0.933,4.135-1.128,5.143-1.669,8.33l-0.196,0.195l-2.525,0.061l-0.136-0.18
			l0.195-1.068c-0.451,0.376-1.639,1.369-3.909,1.369c-2.737,0-4.963-1.926-4.963-5.279c0-2.119,1.022-4.42,2.15-5.759
			c2.496-2.917,5.955-3.083,8.421-3.083l3.699,0.03l0.136,0.21l-1.203,5.203V12.842L145.098,12.842z M143.113,9.443
			c-0.406,0-0.798-0.03-1.203-0.03c-0.888,0-2.632,0.06-4.211,1.128c-2.813,1.925-2.872,5.383-2.872,5.519
			c0,1.294,0.691,3.354,3.143,3.354c0.722,0,1.925-0.165,3.218-1.308L143.113,9.443L143.113,9.443z"/>
	</g>
</g>
</svg>
