<?xml version="1.0" encoding="utf-8"?>
<!-- Generator: Adobe Illustrator 22.1.0, SVG Export Plug-In . SVG Version: 6.00 Build 0)  -->
<svg version="1.1" id="Layer_1" xmlns="http://www.w3.org/2000/svg" xmlns:xlink="http://www.w3.org/1999/xlink" x="0px" y="0px"
	 viewBox="0 0 217.1 84.6" preserveAspectRatio="xMidYMid meet" style="enable-background:new 0 0 217.1 84.6;" xml:space="preserve">
<style type="text/css">
	.st0{fill:#575756;}
	.st1{clip-path:url(#SVGID_2_);fill:url(#SVGID_3_);}
</style>
<g>
	<g>
		<path class="st0" d="M103,15.7c-2.6,0-4.5,0.9-5.7,2.5v-1.4c0-0.4-0.3-0.7-0.7-0.7h-1.4c-0.4,0-0.7,0.3-0.7,0.7v25.6
			c0,0.4,0.3,0.7,0.7,0.7h1.4c0.4,0,0.7-0.3,0.7-0.7v-8.3c1.2,1.7,3.1,2.5,5.7,2.5c3.5,0,5.8-1.6,6.9-4.9c0.5-1.6,0.7-3.3,0.7-5.6
			c0-2.3-0.2-4-0.7-5.6C108.9,17.3,106.5,15.7,103,15.7z M107.3,30.7c-0.7,2.2-2.3,3.3-4.7,3.3c-2.4,0-4.1-1.1-4.7-3.3
			c-0.4-1-0.5-2.4-0.5-4.5c0-2.1,0.2-3.5,0.5-4.5c0.7-2.1,2.3-3.2,4.7-3.2c2.4,0,4,1.1,4.7,3.3c0.4,1.1,0.5,2.5,0.5,4.5
			C107.8,28.2,107.7,29.6,107.3,30.7z"/><!-- Made for www.totalmoney.sk -->
		<path class="st0" d="M122.4,15.7c-3.7,0-6.5,1.9-7.6,5.3c-0.5,1.5-0.7,3-0.7,5.2c0,2.2,0.2,3.7,0.7,5.2l0,0
			c1.1,3.4,3.9,5.3,7.6,5.3c3.7,0,6.5-1.9,7.6-5.3c0.5-1.5,0.7-3,0.7-5.2c0-2.2-0.2-3.6-0.7-5.2C128.9,17.6,126.2,15.7,122.4,15.7z
			 M127.4,30.5c-0.7,2.2-2.5,3.5-4.9,3.5c-2.4,0-4.2-1.3-4.9-3.5c-0.4-1.1-0.5-2.3-0.5-4.3c0-2,0.1-3.2,0.5-4.3
			c0.7-2.2,2.5-3.5,4.9-3.5c2.4,0,4.2,1.2,4.9,3.5c0.4,1.1,0.5,2.3,0.5,4.3C127.9,28.2,127.7,29.4,127.4,30.5z"/>
		<path class="st0" d="M149.3,30.2c0-3.2-2-5.2-5.9-5.5l-2-0.2c-3.5-0.3-4.3-1.5-4.3-3c0-2.1,1.5-3.2,4.3-3.2c2,0,4,0.8,5.3,1.5
			c0.3,0.2,0.8,0.1,0.9-0.2l0.7-1c0.2-0.3,0.2-0.7-0.2-1c-1.9-1.2-4.3-1.9-6.7-1.9c-4.5,0-7.2,2.2-7.2,6c0,3.1,2.1,5.1,5.9,5.5
			l2,0.2c3.5,0.4,4.2,1.4,4.2,3.2c0,2.2-1.8,3.5-4.8,3.5c-2.8,0-4.9-1.2-6.2-2.2c-0.3-0.2-0.7-0.2-1,0l-0.9,1c-0.3,0.3-0.3,0.7,0,1
			l0,0c1.3,1.1,3.9,2.8,7.8,2.8C146.4,36.6,149.3,34.2,149.3,30.2z"/>
		<path class="st0" d="M140.2,12.9c0.2,0.3,0.5,0.5,0.9,0.5h0.9c0.4,0,0.6-0.2,0.8-0.5l3.7-5c0.2-0.2,0.2-0.4,0.1-0.6
			c-0.1-0.2-0.3-0.3-0.5-0.3h-1c-0.5,0-0.6,0.2-0.9,0.5l-2.7,3.3l-2.7-3.3c-0.3-0.4-0.5-0.5-0.9-0.5h-1c-0.2,0-0.4,0.1-0.5,0.3
			c-0.1,0.2,0,0.4,0.1,0.6L140.2,12.9z"/>
		<path class="st0" d="M160.1,36.3h1.1c0.4,0,0.7-0.3,0.7-0.7v-1.3c0-0.4-0.3-0.7-0.7-0.7h-0.8c-2,0-2.9-0.4-2.9-3l0-12h3.7
			c0.4,0,0.7-0.3,0.7-0.7v-1.1c0-0.4-0.3-0.7-0.7-0.7l-3.7,0v-5.6c0-0.4-0.3-0.7-0.7-0.7h-1.4c-0.4,0-0.7,0.3-0.7,0.7l0,5.6h-2
			c-0.4,0-0.7,0.3-0.7,0.7v1.1c0,0.4,0.3,0.7,0.7,0.7l2,0v12.1C154.7,34.8,156.2,36.3,160.1,36.3z"/>
		<path class="st0" d="M179.9,31.4c0.5-1.5,0.7-3,0.7-5.2c0-2.2-0.2-3.6-0.7-5.2c-1.1-3.4-3.9-5.3-7.6-5.3c-3.7,0-6.5,1.9-7.6,5.3
			c-0.5,1.5-0.7,3-0.7,5.2c0,2.2,0.2,3.7,0.7,5.2l0,0c1.1,3.4,3.9,5.3,7.6,5.3C176,36.6,178.8,34.7,179.9,31.4z M177.2,30.5
			c-0.7,2.2-2.5,3.5-4.9,3.5c-2.4,0-4.2-1.3-4.9-3.5c-0.4-1.1-0.5-2.3-0.5-4.3c0-2,0.1-3.2,0.5-4.3c0.7-2.2,2.5-3.5,4.9-3.5
			c2.4,0,4.2,1.2,4.9,3.5c0.4,1.1,0.5,2.3,0.5,4.3C177.7,28.2,177.6,29.4,177.2,30.5z"/>
		<path class="st0" d="M198.9,16.1h-1.5c-0.5,0-0.7,0.3-0.8,0.6l-5.5,15l-5.7-15c-0.1-0.3-0.3-0.6-0.8-0.6h-1.5
			c-0.3,0-0.5,0.1-0.5,0.2c-0.1,0.1-0.1,0.3-0.1,0.6l7.1,18.7c0,0.1,0.2,0.6,0.8,0.6h1.3c0.4,0,0.6-0.2,0.8-0.6l7.1-18.7
			c0.1-0.2,0-0.4-0.1-0.5C199.3,16.2,199.1,16.1,198.9,16.1z"/>
		<path class="st0" d="M209,13.3h1c0.4,0,0.7-0.2,1-0.5l3.6-5c0.1-0.2,0.2-0.4,0.1-0.6c-0.1-0.2-0.3-0.3-0.5-0.3h-1.6
			c-0.4,0-0.7,0.2-0.9,0.5l-3.2,5c-0.1,0.3-0.1,0.5,0,0.6C208.6,13.3,208.8,13.3,209,13.3z"/>
		<path class="st0" d="M209.7,15.7c-2.7,0-4.9,0.7-6.4,1.9c-0.3,0.2-0.4,0.6-0.2,0.9l0.7,1c0.3,0.3,0.7,0.4,1,0.1l0,0
			c1.2-1,2.6-1.4,4.7-1.4c4.1,0,4.8,1.4,4.8,4.2l0,2h-4.9c-5,0-7.7,2.1-7.7,6.1c0,3.8,2.6,6.1,6.8,6.1c2.6,0,4.7-0.8,5.8-2.2v1.1
			c0,0.4,0.3,0.7,0.7,0.7h1.3c0.4,0,0.7-0.3,0.7-0.7V22.5C217.1,17.6,215.1,15.7,209.7,15.7z M214.4,29.9c0,2.5-2.1,4.1-5.3,4.1
			c-2.1,0-4.6-0.6-4.6-3.5c0-2.5,1.6-3.6,5.3-3.6l4.6,0V29.9z"/>
		<path class="st0" d="M103,54.2c-2.6,0-4.5,0.9-5.7,2.5v-9.2c0-0.4-0.3-0.7-0.7-0.7h-1.4c-0.4,0-0.7,0.3-0.7,0.7V74
			c0,0.4,0.3,0.7,0.7,0.7h1.4c0.4,0,0.7-0.3,0.7-0.7v-1.4c1.2,1.7,3.1,2.5,5.7,2.5c3.5,0,5.8-1.6,6.9-4.9c0.5-1.6,0.7-3.3,0.7-5.6
			c0-2.3-0.2-4-0.7-5.6C108.9,55.8,106.5,54.2,103,54.2z M107.3,69.2c-0.7,2.2-2.3,3.3-4.7,3.3c-2.4,0-4.1-1.1-4.7-3.3
			c-0.4-1-0.5-2.4-0.5-4.5c0-2.1,0.2-3.5,0.5-4.5c0.7-2.1,2.3-3.2,4.7-3.2c2.4,0,4,1.1,4.7,3.3c0.4,1.1,0.5,2.5,0.5,4.5
			C107.8,66.6,107.7,68.1,107.3,69.2z"/>
		<path class="st0" d="M122.1,54.2c-2.7,0-4.9,0.7-6.4,1.9c-0.3,0.2-0.4,0.6-0.2,0.9l0.7,1c0.3,0.3,0.7,0.4,1,0.1l0,0
			c1.2-1,2.6-1.4,4.7-1.4c4.1,0,4.8,1.4,4.8,4.2l0,2h-4.9c-5,0-7.7,2.1-7.7,6.1c0,3.8,2.6,6.1,6.8,6.1c2.6,0,4.7-0.8,5.8-2.2V74
			c0,0.4,0.3,0.7,0.7,0.7h1.3c0.4,0,0.7-0.3,0.7-0.7V60.9C129.5,56.1,127.4,54.2,122.1,54.2z M126.7,68.4c0,2.5-2.1,4.1-5.3,4.1
			c-2.1,0-4.6-0.6-4.6-3.5c0-2.5,1.6-3.6,5.3-3.6l4.6,0V68.4z"/>
		<path class="st0" d="M143.1,54.2c-2.4,0-4.4,0.9-5.5,2.5v-1.4c0-0.4-0.3-0.7-0.7-0.7h-1.4c-0.4,0-0.7,0.3-0.7,0.7V74
			c0,0.4,0.3,0.7,0.7,0.7h1.4c0.4,0,0.7-0.3,0.7-0.7V62c0-3.1,2-5.2,5.1-5.2c3.3,0,4.8,1.8,4.8,5.6V74c0,0.4,0.3,0.7,0.7,0.7h1.4
			c0.4,0,0.7-0.3,0.7-0.7V61.9C150.2,57,147.6,54.2,143.1,54.2z"/>
		<path class="st0" d="M163.9,62.1l5.6-6.7c0.2-0.2,0.2-0.4,0.1-0.6c-0.1-0.2-0.3-0.3-0.5-0.3h-1.7c-0.5,0-0.7,0.2-0.9,0.5l-8.4,9.9
			V47.5c0-0.4-0.3-0.7-0.7-0.7h-1.4c-0.4,0-0.7,0.3-0.7,0.7V74c0,0.4,0.3,0.7,0.7,0.7h1.4c0.4,0,0.7-0.3,0.7-0.7v-5.1l3.9-4.5l6,9.8
			c0.2,0.4,0.4,0.5,0.9,0.5h1.7c0.2,0,0.4-0.1,0.5-0.3c0.1-0.2,0.1-0.4,0-0.6L163.9,62.1z"/>
		<path class="st0" d="M181.5,54.2c-2.7,0-4.9,0.7-6.4,1.9c-0.3,0.2-0.4,0.6-0.2,0.9l0.7,1c0.3,0.3,0.7,0.4,1,0.1l0,0
			c1.2-1,2.6-1.4,4.7-1.4c4.1,0,4.8,1.4,4.8,4.2l0,2h-4.9c-5,0-7.7,2.1-7.7,6.1c0,3.8,2.6,6.1,6.8,6.1c2.6,0,4.7-0.8,5.8-2.2V74
			c0,0.4,0.3,0.7,0.7,0.7h1.3c0.4,0,0.7-0.3,0.7-0.7V60.9C188.9,56.1,186.8,54.2,181.5,54.2z M186.2,68.4c0,2.5-2.1,4.1-5.3,4.1
			c-2.1,0-4.6-0.6-4.6-3.5c0-2.5,1.6-3.6,5.3-3.6l4.6,0V68.4z"/>
	</g>
	<g>
		<defs>
			<path id="SVGID_1_" d="M10.2,42.3c0-17.7,14.4-32.1,32.1-32.1c17.7,0,32.1,14.4,32.1,32.1C74.4,60,60,74.4,42.3,74.4
				C24.6,74.4,10.2,60,10.2,42.3 M0,42.3c0,23.4,18.9,42.3,42.3,42.3c23.4,0,42.3-18.9,42.3-42.3C84.6,18.9,65.7,0,42.3,0
				C18.9,0,0,18.9,0,42.3"/>
		</defs>
		<clipPath id="SVGID_2_">
			<use xlink:href="#SVGID_1_"  style="overflow:visible;"/>
		</clipPath>
		
			<linearGradient id="SVGID_3_" gradientUnits="userSpaceOnUse" x1="-90.4099" y1="172.625" x2="-89.6819" y2="172.625" gradientTransform="matrix(129.3211 129.3211 -129.3211 129.3211 33995.7695 -10652.748)">
			<stop  offset="0" style="stop-color:#FFEF19"/>
			<stop  offset="0.14" style="stop-color:#FFEF19"/>
			<stop  offset="0.386" style="stop-color:#FBB929"/>
			<stop  offset="0.8646" style="stop-color:#E52325"/>
			<stop  offset="0.9954" style="stop-color:#E52325"/>
		</linearGradient>
		<polygon class="st1" points="-68.4,26.1 26.5,121 121.4,26.1 26.5,-68.8 		"/>
	</g>
</g>
</svg>
