<svg xmlns="http://www.w3.org/2000/svg" xml:space="preserve" viewBox="0 0 1594 298" preserveAspectRatio="xMidYMid meet" style="image-rendering:optimizeQuality;shape-rendering:geometricPrecision;text-rendering:geometricPrecision"><defs><style type="text/css">
    .fil0 {fill:#A8C800;fill-rule:nonzero}
   </style></defs><!-- Made for www.totalmoney.sk --><path class="fil0" d="M1266.6 278c-5 2.3-13.1 4.1-22.5 4.1-20.2 0-33.1-7.1-33.1-23.9 0-23.9 22.3-29.6 55.6-32.8l0 52.6zm27.1 10.1l0 0 0-78.3c0-31.7-23-42.9-52.8-42.9-21.4 0-39 5.3-48.5 8.9l6.7 15.2c8.5-3.7 23.4-7.1 36.5-7.1 18.4 0 31 5 31 22l0 7.1c-45 3.7-82.9 12.6-82.9 45.9 0 23.7 18.6 38.1 58.1 38.1 22.3 0 40.4-3.7 51.9-8.9zm-113.4 5.7l0 0-61.3-70 55.3-53.7-30.6 0-51.9 53.7-0.5-108.2-28.5 0 0 178.2 28.5 0 0-67.3 55.1 67.3 33.8 0zm-142.2 0l0 0 0-88.9c0-27.1-23.4-38.1-58.6-38.1-21.1 0-40.9 3.9-53.5 8.9l0 118 28.7 0 0-106.6c5.5-2.1 14.2-3.7 23.2-3.7 16.5 0 31.2 6 31.2 21.8l0 88.4 28.9 0zm-163-15.8l0 0c-5.1 2.3-13.1 4.1-22.5 4.1-20.2 0-33.1-7.1-33.1-23.9 0-23.9 22.3-29.6 55.6-32.8l0 52.6zm27.1 10.1l0 0 0-78.3c0-31.7-23-42.9-52.8-42.9-21.3 0-39 5.3-48.4 8.9l6.7 15.2c8.5-3.7 23.4-7.1 36.5-7.1 18.4 0 31 5 31 22l0 7.1c-45 3.7-82.9 12.6-82.9 45.9 0 23.7 18.6 38.1 58.1 38.1 22.3 0 40.4-3.7 51.9-8.9zm-161.7-112.3l0 0c0 19.1-11.5 28.7-45.2 28.7-4.4 0-9.9-0.2-12.6-0.5l0-52.1c6.2-2.1 13.6-3.4 22.3-3.4 23.4 0 35.6 9.2 35.6 27.3zm5 74.6l0 0c0 21.4-16.5 29.6-39.3 29.6-9.9 0-18.1-1.8-23.6-3.9l0-57.9c2.8-0.2 8.3-0.5 12.6-0.5 36.1 0 50.3 10.3 50.3 32.6zm30.3 0.5l0 0c0-23.2-23-37.4-40.2-40.4 16.1-3.4 34-14.5 34-36.3 0-23.4-20.9-41.6-64.8-41.6-22 0-40.4 4.1-51.4 9l0 146.5c11.5 5 30.5 8.9 53.5 8.9 41.3 0 68.9-14.5 68.9-46.1zm-658.7-68.7l0 0c0-28-19.5-49.6-66.4-49.6-20 0-38.6 3.9-50.8 9l0 152.3 29.9 0 0-63.8c4.4 0.7 11.9 1.2 18.1 1.2 49.1 0 69.1-21.8 69.1-48.9zm450.1 95.8l0 0c-5.1 2.3-13.1 4.1-22.5 4.1-20.2 0-33.1-7.1-33.1-23.9 0-23.9 22.3-29.6 55.6-32.8l0 52.6zm27.1 10.1l0 0 0-78.3c0-31.7-23-42.9-52.8-42.9-21.4 0-39 5.3-48.5 8.9l6.7 15.2c8.5-3.7 23.4-7.1 36.5-7.1 18.4 0 31 5 31 22l0 7.1c-45 3.7-82.9 12.6-82.9 45.9 0 23.7 18.6 38.1 58.1 38.1 22.3 0 40.4-3.7 51.9-8.9zm-128.2 5.7l0 0 0-88.9c0-18.8-14.5-38.1-49.4-38.1-21.3 0-36.3 6.2-46.4 14.2-8.7-8.3-21.8-14.2-45-14.2-22 0-40 3.7-53.5 8.9l0 118 28.7 0 0-106.3c6-2.3 13.8-3.9 24.6-3.9 19.1 0 29.4 8.5 29.4 20.9l0 89.3 28.9 0 0-100.8c7.1-6.2 16.5-9.4 27.1-9.4 18.8 0 26.9 10.3 26.9 21.6l0 88.6 28.7 0zm-217-158.9l0 0c0-7.6-7.6-13.8-16.8-13.8-9.2 0-16.8 6.2-16.8 13.8 0 7.6 7.6 13.8 16.8 13.8 9.2 0 16.8-6.2 16.8-13.8zm-2.3 35.1l0 0-28.9 0 0 123.8 28.9 0 0-123.8zm-41.1-2.5l0 0c-3-0.2-9-0.7-13.8-0.7-26.4 0-42.7 3.2-57 8.9l0 118 28.7 0 0-106.3c8-3.9 24.3-4.4 35.8-1.1l6.2-18.8zm-118.3 14.5l0 0c0 20.2-10.8 33.3-40.2 33.3-6.2 0-12.8-0.7-17.4-1.6l0-61.8c3.9-1.6 11.5-3.2 20-3.2 26.4 0 37.7 11.7 37.7 33.3zm1240-45.9l0 0 110.7-110.7c34.1-33.9 89.2-33.9 123.1 0.1 34 34 34 89.1 0 123 33.8 34.1 33.7 89.1-0.2 123-34 34-89.1 34-123 0l-73.7-73.9 24.6-24.6 73.8 73.8c20.3 20.5 53.3 20.5 73.7 0.1 20.4-20.4 20.4-53.4 0-73.8l-24.5-24.7 24.6-24.6c20.5-20.3 20.5-53.3 0.1-73.7-20.4-20.4-53.4-20.4-73.8 0l-123.1 122.9-12.3-12.3c-6.8-6.8-6.8-17.8 0-24.6zm159.9-61.5l0 0c6.8-6.8 17.8-6.8 24.6 0 6.8 6.8 6.8 17.8 0 24.6l-49.2 49.2 49.2 49.2c6.8 6.8 6.8 17.8 0 24.6-6.8 6.8-17.8 6.8-24.6 0l-73.8-73.8 73.8-73.8z"/></svg>