<?xml version="1.0" encoding="UTF-8" standalone="no"?>
<!-- Created with Inkscape (http://www.inkscape.org/) -->
<svg
   xmlns:svg="http://www.w3.org/2000/svg"
   xmlns="http://www.w3.org/2000/svg"
   version="1.0"
   width="779.52753"
   height="578.97638"
   id="svg2">
  <defs
     id="defs4"><clipPath
   id="clp5">
<path
   d="M -247.26,-8.57 L -247.26,26.286 L 80.61,26.286 L 80.61,-8.57 L -247.26,-8.57 z "
   id="path40506" />

</clipPath>



<clipPath
   id="clipPath41257">
<path
   d="M -247.26,-8.57 L -247.26,26.286 L 80.61,26.286 L 80.61,-8.57 L -247.26,-8.57 z "
   id="path41259" />

</clipPath>
















































































</defs>
  <g
     transform="translate(-1015.2552,242.14883)"
     id="layer1">
    <g
       transform="translate(35.433063,35.410155)"
       id="g41906">
      <path
         d="M 1458.6515,-242.14883 L 1370.9465,-191.45636 L 1282.5757,-241.97999 L 1272.5903,-232.96271 L 1370.9465,-176.0485 L 1469.2975,-233.13151 C 1465.6776,-236.45343 1462.5592,-239.31849 1458.6515,-242.14883 z M 1478.9056,-223.52832 L 1370.9465,-160.91375 L 1262.6843,-223.62264 C 1259.5313,-220.29082 1256.6066,-216.76036 1253.9352,-213.14553 L 1370.9465,-145.70952 L 1487.3617,-213.14553 C 1484.7102,-216.65113 1481.7707,-220.38519 1478.9056,-223.52832 z M 1494.805,-202.21155 L 1370.9465,-130.58467 L 1246.338,-202.33073 C 1244.034,-198.5123 1241.765,-194.60944 1239.8531,-190.62216 L 1370.9465,-115.1669 L 1501.0863,-190.67183 C 1499.0702,-194.60944 1497.0692,-198.60165 1494.805,-202.21155 z M 1506.5783,-178.41705 L 1370.9465,-99.759076 L 1234.4259,-178.71 C 1227.8614,-162.16011 1224.0579,-144.00633 1224.0579,-125.15247 C 1224.0579,-44.498356 1289.895,21.413246 1370.564,21.413246 C 1451.2133,21.413246 1517.0601,-44.498356 1517.0601,-125.15247 C 1517.0601,-143.62895 1513.1524,-162.05084 1506.5783,-178.41705"
         style="fill:#008356;fill-rule:nonzero;stroke:none"
         id="path41688" />
      <path
         d="M 1223.2732,64.324827 L 1516.534,64.324827 L 1516.534,57.422827 L 1223.2732,57.422827 L 1223.2732,64.324827 z "
         style="fill:#008356;fill-rule:nonzero;stroke:none"
         id="path41690" />
      <path
         d="M 1559.7236,81.852977 L 1548.5313,84.718037 L 1548.7348,85.731017 C 1549.0875,85.656547 1549.4848,85.616807 1549.9067,85.616807 C 1550.4928,85.616807 1550.9497,85.740917 1551.2623,85.999157 C 1551.5602,86.257357 1551.7836,86.580087 1551.9128,86.987287 C 1552.0621,87.394447 1552.1364,87.831387 1552.1463,88.317997 C 1552.1662,88.804647 1552.1662,89.256497 1552.1662,89.688477 L 1552.1662,102.93139 C 1552.1662,103.51237 1552.1563,104.0933 1552.1213,104.64449 C 1552.0918,105.19564 1551.9924,105.69219 1551.8035,106.13907 C 1551.6151,106.58599 1551.3121,106.94349 1550.9147,107.22157 C 1550.5076,107.50955 1549.9417,107.67839 1549.1771,107.73299 L 1549.1771,108.73603 L 1562.6981,108.73603 L 1562.6981,107.73299 C 1561.9334,107.69823 1561.3723,107.55425 1560.9651,107.27617 C 1560.5527,106.97825 1560.2747,106.62075 1560.0712,106.16889 C 1559.8874,105.73191 1559.7781,105.22546 1559.7534,104.67427 C 1559.7236,104.13302 1559.7236,103.55209 1559.7236,102.96118 L 1559.7236,81.852977 z M 1543.2083,98.894487 L 1543.2083,83.029797 L 1542.9601,83.029797 C 1542.687,84.911697 1541.8924,86.406317 1540.5817,87.528497 C 1539.2607,88.650717 1537.6224,89.231657 1535.656,89.281317 L 1535.656,98.894487 L 1527.3088,98.894487 L 1530.5266,94.862507 C 1531.1522,94.043187 1531.8078,93.179197 1532.5077,92.250677 C 1533.2081,91.322117 1533.8534,90.353867 1534.4344,89.326007 C 1535.0054,88.308097 1535.4822,87.255437 1535.8596,86.177907 C 1536.2318,85.105357 1536.4306,84.047707 1536.4306,82.990067 C 1536.4306,82.165807 1536.3364,81.420967 1536.1725,80.740697 C 1535.9836,80.085287 1535.7156,79.464587 1535.3728,78.873707 C 1534.5736,79.886657 1533.6697,80.899597 1532.6716,81.872867 C 1531.6735,82.860957 1530.5712,83.749787 1529.3647,84.534317 C 1529.7123,84.742887 1529.9703,85.020937 1530.1541,85.388397 C 1530.3178,85.760807 1530.4173,86.123267 1530.4173,86.510577 C 1530.4173,87.166037 1530.2785,87.890997 1530.03,88.650717 C 1529.772,89.400497 1529.4641,90.135397 1529.1066,90.875237 C 1528.7293,91.625007 1528.3467,92.340037 1527.9248,93.035207 C 1527.5124,93.740287 1527.1303,94.375897 1526.7927,94.936987 L 1525.2434,97.444557 C 1524.7965,98.139697 1524.4092,98.859687 1524.1062,99.594597 C 1523.7836,100.3394 1523.6198,101.12895 1523.6198,102.00287 L 1523.6743,102.59375 C 1524.0468,102.21637 1524.5034,102.03762 1525.02,102.00287 C 1525.5512,101.97305 1526.0626,101.95818 1526.5792,101.95818 L 1535.656,101.95818 L 1535.656,104.55012 C 1535.6408,105.58792 1535.3828,106.39233 1534.916,106.89879 C 1534.4495,107.43009 1533.8236,107.71811 1533.0741,107.77271 L 1533.0741,108.73603 L 1545.5373,108.73603 L 1545.5373,107.77271 C 1544.0974,107.68833 1543.3128,106.60583 1543.2083,104.55012 L 1543.2083,101.95818 L 1544.2461,101.95818 C 1544.4648,101.95818 1544.723,101.95818 1545.0207,101.93332 C 1545.3138,101.91845 1545.587,101.95818 1545.8498,102.02271 C 1546.1083,102.08726 1546.312,102.20146 1546.4757,102.36534 C 1546.6444,102.53418 1546.6993,102.76752 1546.6794,103.08532 L 1547.2353,103.16975 L 1548.7348,97.484287 L 1548.0497,97.444557 C 1547.8063,97.816967 1547.5284,98.099977 1547.2353,98.303577 C 1546.9474,98.512147 1546.6296,98.651167 1546.2722,98.730607 C 1545.9294,98.800117 1545.5473,98.859687 1545.1647,98.864667 C 1544.7726,98.889507 1544.3853,98.894487 1543.9682,98.894487 L 1543.2083,98.894487 z M 1509.1006,84.360547 C 1509.7313,84.360547 1510.2626,84.479717 1510.7243,84.752837 C 1511.1713,85.001087 1511.5534,85.333767 1511.8464,85.731017 C 1512.1443,86.138177 1512.363,86.599977 1512.5117,87.131277 C 1512.6608,87.652647 1512.7404,88.193887 1512.7404,88.754977 C 1512.7054,89.326007 1512.6112,89.867267 1512.4326,90.393597 C 1512.2588,90.924897 1512.0155,91.386697 1511.6878,91.788887 C 1511.3696,92.205987 1510.9628,92.518817 1510.506,92.757137 C 1510.0145,92.995487 1509.498,93.114667 1508.9018,93.114667 C 1508.2815,93.114667 1507.7451,92.995487 1507.3081,92.727347 C 1506.8662,92.444337 1506.4936,92.101717 1506.176,91.684617 C 1505.8728,91.267517 1505.6398,90.790807 1505.4955,90.249607 C 1505.3468,89.718297 1505.2724,89.172077 1505.2724,88.596077 C 1505.2724,87.493747 1505.6101,86.520517 1506.2952,85.676387 C 1506.9951,84.822347 1507.9188,84.390337 1509.1006,84.360547 z M 1504.5372,101.15376 C 1504.5372,100.42382 1504.6366,99.738587 1504.8255,99.093077 C 1505.0092,98.452537 1505.2971,97.876537 1505.6745,97.379977 C 1506.0566,96.878497 1506.5234,96.486207 1507.1044,96.203197 C 1507.6806,95.920157 1508.3606,95.781137 1509.1452,95.781137 C 1509.8952,95.781137 1510.5357,95.949937 1511.0917,96.267747 C 1511.6481,96.590477 1512.095,97.012547 1512.4573,97.533907 C 1512.8001,98.065217 1513.0581,98.661097 1513.2318,99.311587 C 1513.381,99.981907 1513.4602,100.6324 1513.4602,101.27294 C 1513.4602,101.91845 1513.3758,102.55899 1513.1675,103.18959 C 1512.9487,103.82516 1512.6755,104.38132 1512.2934,104.85799 C 1511.9113,105.33967 1511.4592,105.73191 1510.9231,106.05469 C 1510.3866,106.36256 1509.7711,106.51151 1509.0608,106.51151 C 1508.2815,106.51151 1507.6158,106.36748 1507.05,106.0795 C 1506.4837,105.78158 1506.0173,105.37936 1505.6498,104.88285 C 1505.292,104.38132 1505.0092,103.81029 1504.8255,103.16975 C 1504.6366,102.53418 1504.5372,101.85885 1504.5372,101.15376 z M 1521.5393,101.39705 C 1521.5393,100.25996 1521.3007,99.306607 1520.8437,98.487287 C 1520.3972,97.682877 1519.7864,97.007577 1519.0316,96.466367 C 1518.277,95.935067 1517.4227,95.508017 1516.4891,95.175347 C 1515.5458,94.862507 1514.5974,94.624157 1513.624,94.490107 C 1514.4336,94.336177 1515.2381,94.097817 1516.0425,93.775087 C 1516.8565,93.442367 1517.5718,93.025267 1518.1775,92.493967 C 1518.8031,91.972597 1519.3096,91.341997 1519.697,90.622007 C 1520.0843,89.887097 1520.2827,89.057877 1520.2827,88.109467 C 1520.2827,87.463957 1520.1586,86.863147 1519.9204,86.311957 C 1519.6771,85.760807 1519.3593,85.264257 1518.9522,84.782617 C 1518.5501,84.315857 1518.0781,83.913667 1517.5818,83.556137 C 1517.0653,83.203567 1516.534,82.915587 1515.9531,82.677237 C 1514.9994,82.260137 1513.9322,81.972157 1512.7702,81.803307 C 1511.6182,81.629537 1510.506,81.545107 1509.4235,81.545107 C 1508.1372,81.545107 1506.8464,81.634507 1505.5703,81.833137 C 1504.2891,82.041667 1503.0527,82.414067 1501.8463,82.955307 C 1500.7142,83.481657 1499.7506,84.226457 1498.9314,85.150047 C 1498.127,86.083547 1497.7245,87.215697 1497.7245,88.556357 C 1497.7245,89.524647 1497.9234,90.363807 1498.3254,91.058957 C 1498.7326,91.759097 1499.2638,92.340037 1499.9045,92.796857 C 1500.5498,93.243777 1501.2752,93.621157 1502.0745,93.909137 C 1502.8837,94.192187 1503.7133,94.385797 1504.5372,94.490107 C 1503.6038,94.624157 1502.6503,94.842637 1501.6725,95.155467 C 1500.7142,95.468297 1499.8448,95.895347 1499.0754,96.426647 C 1498.3055,96.962877 1497.6801,97.638217 1497.2033,98.452537 C 1496.7268,99.247007 1496.4684,100.20536 1496.4684,101.30769 C 1496.4684,102.9463 1496.9153,104.33166 1497.824,105.42405 C 1498.7326,106.53632 1499.8846,107.39037 1501.3146,108.01107 C 1502.442,108.55231 1503.6783,108.91478 1505.024,109.10347 C 1506.3747,109.30209 1507.6707,109.39148 1508.9567,109.39148 C 1510.3568,109.39148 1511.767,109.26733 1513.1675,109.06373 C 1514.5377,108.84029 1515.8886,108.41326 1517.1794,107.77271 C 1518.4654,107.09245 1519.5081,106.25825 1520.3276,105.22546 C 1521.1368,104.2075 1521.5393,102.93139 1521.5393,101.39705 z M 1492.7245,81.852977 L 1481.5373,84.718037 L 1481.731,85.731017 C 1482.0936,85.656547 1482.4808,85.616807 1482.908,85.616807 C 1483.4937,85.616807 1483.9554,85.740917 1484.2632,85.999157 C 1484.5662,86.257357 1484.7948,86.580087 1484.9388,86.987287 C 1485.0577,87.394447 1485.1324,87.831387 1485.1472,88.317997 C 1485.1671,88.804647 1485.1722,89.256497 1485.1722,89.688477 L 1485.1722,102.93139 C 1485.1722,103.51237 1485.1523,104.0933 1485.1225,104.64449 C 1485.1074,105.19564 1484.9933,105.69219 1484.8047,106.13907 C 1484.6306,106.58599 1484.328,106.94349 1483.9108,107.22157 C 1483.5084,107.50955 1482.9374,107.67839 1482.1878,107.73299 L 1482.1878,108.73603 L 1495.699,108.73603 L 1495.699,107.73299 C 1494.9588,107.69823 1494.378,107.55425 1493.9758,107.27617 C 1493.5635,106.97825 1493.2708,106.62075 1493.0871,106.16889 C 1492.8983,105.73191 1492.7742,105.22546 1492.7694,104.67427 C 1492.7344,104.13302 1492.7245,103.55209 1492.7245,102.96118 L 1492.7245,81.852977 z M 1448.7753,93.313287 L 1448.7753,104.4558 C 1448.7753,106.56611 1448.0401,107.64363 1446.5902,107.73299 L 1446.5902,108.73603 L 1458.731,108.73603 L 1458.731,107.73299 C 1457.9862,107.67839 1457.3901,107.39037 1456.9631,106.85413 C 1456.5264,106.32776 1456.3228,105.52836 1456.3228,104.4558 L 1456.3228,99.336397 C 1456.3228,98.636257 1456.3626,97.876537 1456.4468,97.057247 C 1456.5463,96.237957 1456.7498,95.517967 1457.0377,94.892297 C 1457.321,94.301417 1457.7428,93.794937 1458.3286,93.348047 C 1458.9246,92.901167 1459.5852,92.672757 1460.3101,92.672757 C 1460.8215,92.672757 1461.2036,92.831607 1461.4768,93.114667 C 1461.7448,93.417557 1461.9337,93.775087 1462.0232,94.192187 C 1462.1222,94.609287 1462.1718,95.041257 1462.1818,95.508017 C 1462.2017,95.969817 1462.2116,96.362067 1462.2116,96.714617 L 1462.2116,104.4558 C 1462.2116,106.56611 1461.4371,107.64363 1459.9028,107.73299 L 1459.9028,108.73603 L 1471.9736,108.73603 L 1471.9736,107.73299 C 1470.494,107.64363 1469.7592,106.56611 1469.7592,104.4558 L 1469.7592,95.666917 C 1469.8633,93.313287 1469.5308,91.530687 1468.7463,90.294267 C 1467.9566,89.057877 1466.4967,88.402417 1464.3418,88.317997 C 1462.6984,88.317997 1461.2036,88.700347 1459.8234,89.469997 C 1458.4431,90.229717 1457.286,91.198007 1456.3228,92.349977 C 1456.1788,91.704467 1456.0643,91.049007 1455.9255,90.393597 C 1455.8111,89.733167 1455.553,89.107547 1455.1807,88.516637 L 1446.5902,89.097597 L 1446.5902,90.095677 C 1448.0401,90.180057 1448.7753,91.252607 1448.7753,93.313287 z M 1434.5985,82.955307 C 1434.5985,84.107317 1435.011,85.001087 1435.8102,85.626717 C 1436.6146,86.267297 1437.5631,86.580087 1438.6455,86.580087 C 1439.1422,86.580087 1439.6587,86.510577 1440.1451,86.341777 C 1440.6516,86.177907 1441.0886,85.949487 1441.4807,85.656547 C 1441.8733,85.358617 1442.191,84.991147 1442.4391,84.534317 C 1442.6777,84.107317 1442.7966,83.610767 1442.7966,83.069517 C 1442.7966,81.912547 1442.4244,81.003867 1441.6844,80.328577 C 1440.9447,79.648297 1440.0162,79.320597 1438.8841,79.320597 C 1438.3429,79.320597 1437.8112,79.400057 1437.305,79.558957 C 1436.7984,79.722787 1436.3315,79.961147 1435.9295,80.264037 C 1435.5275,80.571897 1435.2046,80.959207 1434.9564,81.396157 C 1434.7279,81.833137 1434.5985,82.354497 1434.5985,82.955307 z M 1433.1487,89.097597 L 1433.1487,90.095677 C 1434.5985,90.180057 1435.3286,91.252607 1435.3286,93.313287 L 1435.3286,104.4558 C 1435.3286,106.56611 1434.5985,107.64363 1433.1487,107.73299 L 1433.1487,108.73603 L 1445.1006,108.73603 L 1445.1006,107.73299 C 1443.6706,107.64363 1442.9159,106.56611 1442.8316,104.4558 L 1442.8316,88.516637 L 1433.1487,89.097597 z M 1409.0067,91.148347 L 1410.2232,91.227797 L 1410.2232,102.24119 C 1410.2232,102.69304 1410.2232,103.16975 1410.2232,103.65636 C 1410.2232,104.13302 1410.1734,104.56007 1410.0494,104.94738 C 1409.9253,105.31978 1409.717,105.63262 1409.3941,105.88088 C 1409.0911,106.10929 1408.6242,106.24338 1407.9987,106.24338 C 1407.0952,106.24338 1406.3154,106.00502 1405.6649,105.54322 C 1405.0143,105.10131 1404.4982,104.53028 1404.0957,103.83014 C 1403.6885,103.14489 1403.3859,102.38025 1403.197,101.55595 C 1403.0232,100.71185 1402.929,99.917377 1402.929,99.137767 C 1402.929,98.219157 1403.0431,97.315447 1403.2865,96.426647 C 1403.52,95.542777 1403.9072,94.708577 1404.4237,93.919077 C 1404.9153,93.139477 1405.5905,92.479087 1406.395,91.942817 C 1407.1994,91.411507 1408.0731,91.148347 1409.0067,91.148347 z M 1410.6654,108.76581 L 1419.9855,108.73603 L 1419.9855,107.73299 C 1418.5353,107.61385 1417.7957,106.53632 1417.7659,104.4558 L 1417.7659,81.490517 L 1407.5669,82.061547 L 1407.5669,83.069517 C 1408.2917,83.099307 1408.8377,83.248267 1409.1952,83.506467 C 1409.5531,83.784547 1409.8212,84.132137 1409.9751,84.569077 C 1410.1091,84.991147 1410.1985,85.477757 1410.2084,86.014037 C 1410.2184,86.550307 1410.2232,87.111397 1410.2232,87.672537 L 1410.2232,88.486847 L 1407.4873,88.317997 C 1405.7396,88.317997 1404.0957,88.536507 1402.5663,88.983397 C 1401.0274,89.430277 1399.6865,90.105577 1398.5444,91.029167 C 1397.3976,91.932877 1396.4886,93.099757 1395.8384,94.490107 C 1395.1727,95.895347 1394.8451,97.548817 1394.8451,99.460547 C 1394.8451,100.98491 1395.1382,102.46462 1395.739,103.83014 C 1396.33,105.22546 1397.2783,106.34765 1398.5643,107.21162 C 1399.1501,107.60391 1399.7907,107.92665 1400.4811,108.14511 C 1401.1614,108.38347 1401.8764,108.55231 1402.6013,108.65658 C 1403.3211,108.75588 1404.0512,108.83036 1404.8012,108.85023 C 1405.5309,108.88499 1406.2557,108.88499 1406.9609,108.85023 L 1410.6654,108.76581 z M 1385.093,95.542777 L 1378.4295,96.868557 C 1378.3945,96.337257 1378.4343,95.741407 1378.5536,95.115747 C 1378.6431,94.490107 1378.8514,93.894217 1379.1345,93.348047 C 1379.4077,92.786957 1379.7752,92.340037 1380.227,91.972597 C 1380.6587,91.600197 1381.2251,91.421457 1381.8951,91.421457 C 1382.8387,91.421457 1383.6133,91.768997 1384.2142,92.454247 C 1384.825,93.139477 1385.1229,93.938917 1385.1229,94.862507 L 1385.093,95.542777 z M 1378.663,99.336397 L 1393.1916,96.391887 C 1392.9435,94.986657 1392.5065,93.794937 1391.8711,92.786957 C 1391.2153,91.768997 1390.416,90.924897 1389.4629,90.269447 C 1388.5045,89.613997 1387.4316,89.117447 1386.2152,88.804647 C 1384.9987,88.486847 1383.7374,88.317997 1382.4267,88.317997 C 1380.8325,88.317997 1379.3183,88.536507 1377.8585,88.963507 C 1376.3983,89.400497 1375.1322,90.041037 1374.0251,90.924897 C 1372.9276,91.798817 1372.0389,92.881277 1371.3636,94.167337 C 1370.6932,95.468297 1370.3555,96.952977 1370.3555,98.651167 C 1370.3555,100.30962 1370.7079,101.85885 1371.4281,103.28892 C 1372.1283,104.71897 1373.1757,105.91066 1374.5114,106.88889 C 1375.6885,107.75287 1377.0342,108.35369 1378.5186,108.71615 C 1380.0182,109.08362 1381.4783,109.26733 1382.9131,109.26733 C 1383.7672,109.26733 1384.6262,109.2127 1385.4656,109.10347 C 1386.3146,108.9992 1387.1636,108.87008 1388.0325,108.73603 C 1388.1665,108.70625 1388.3109,108.68637 1388.4746,108.65658 C 1388.6333,108.62182 1388.7824,108.62182 1388.9164,108.62182 C 1389.1797,108.62182 1389.4179,108.66155 1389.5969,108.76581 C 1389.7953,108.88499 1389.9989,109.00417 1390.2176,109.14319 L 1392.705,101.39705 L 1391.8711,101.06934 C 1391.2503,102.53418 1390.3166,103.69111 1389.0854,104.57995 C 1387.8389,105.46378 1386.4187,105.91066 1384.8051,105.91066 C 1383.8615,105.91066 1383.0272,105.73191 1382.2975,105.36945 C 1381.5726,105.00695 1380.9519,104.53028 1380.4603,103.90461 C 1379.9636,103.3038 1379.5716,102.60866 1379.2685,101.81415 C 1378.9655,101.02465 1378.7771,100.19541 1378.663,99.336397 z M 1367.0932,104.5104 L 1367.0932,95.105797 C 1367.0932,94.296457 1367.0387,93.442367 1366.9393,92.548597 C 1366.855,91.664737 1366.5421,90.880197 1366.0406,90.209877 C 1365.5241,89.544487 1364.9284,89.057877 1364.2182,88.754977 C 1363.5131,88.462037 1362.7532,88.317997 1361.9193,88.317997 C 1360.3351,88.317997 1358.8109,88.685477 1357.3757,89.400497 C 1355.9406,90.135397 1354.6844,91.073867 1353.5972,92.235767 L 1353.5972,81.490517 L 1343.9243,82.061547 L 1343.9243,83.069517 C 1345.3694,83.153947 1346.0991,84.231437 1346.0991,86.302057 L 1346.0991,104.5104 C 1346.0991,106.57108 1345.3694,107.64363 1343.9243,107.73299 L 1343.9243,108.73603 L 1355.8217,108.73603 L 1355.8217,107.73299 C 1354.3666,107.64363 1353.6517,106.57108 1353.6517,104.5104 L 1353.5972,99.579687 C 1353.5972,98.800117 1353.6517,98.010617 1353.7312,97.235987 C 1353.8056,96.456437 1354.0044,95.691747 1354.3369,94.981687 C 1354.63,94.336177 1355.057,93.775087 1355.6229,93.308317 C 1356.1891,92.831607 1356.8297,92.598267 1357.5594,92.598267 C 1358.0462,92.598267 1358.4184,92.702537 1358.6867,92.921007 C 1358.9596,93.129577 1359.1532,93.397707 1359.2777,93.720457 C 1359.3966,94.043187 1359.4614,94.415637 1359.5012,94.802897 C 1359.5206,95.185247 1359.5357,95.562617 1359.5357,95.905247 L 1359.5357,104.5104 C 1359.4515,106.57108 1358.7066,107.64363 1357.2815,107.73299 L 1357.2815,108.73603 L 1369.2183,108.73603 L 1369.2183,107.73299 C 1367.7684,107.64363 1367.0586,106.57108 1367.0932,104.5104 z M 1340.7366,94.336177 L 1340.4484,88.447117 C 1340.2051,88.581207 1339.9867,88.685477 1339.7831,88.754977 C 1339.5846,88.849307 1339.3262,88.879137 1339.0335,88.879137 C 1338.6064,88.879137 1338.1794,88.859247 1337.7622,88.804647 C 1337.3499,88.754977 1336.9379,88.685477 1336.5406,88.596077 L 1333.0302,88.317997 C 1331.8336,88.317997 1330.6764,88.422297 1329.5296,88.625867 C 1328.3875,88.824487 1327.3,89.201867 1326.282,89.772897 C 1325.264,90.314147 1324.425,91.049007 1323.7795,91.982547 C 1323.129,92.930947 1322.8112,93.983617 1322.8112,95.145517 C 1322.8112,95.999597 1322.995,96.724567 1323.3624,97.340297 C 1323.7246,97.936147 1324.1915,98.457497 1324.7724,98.864667 C 1325.3534,99.291697 1325.9889,99.624377 1326.7043,99.902457 C 1327.4193,100.16564 1328.1342,100.3841 1328.8242,100.54798 L 1331.7687,101.23321 C 1332.0369,101.30769 1332.3895,101.39705 1332.8015,101.47157 C 1333.2239,101.55595 1333.6111,101.68009 1334.0084,101.839 C 1334.4004,102.00287 1334.7381,102.2114 1335.0013,102.46462 C 1335.2745,102.70796 1335.4136,103.03566 1335.4136,103.418 C 1335.4136,104.02876 1335.2347,104.53028 1334.8972,104.92257 C 1334.5595,105.31978 1334.1523,105.6177 1333.6509,105.85109 C 1333.1494,106.0795 1332.6177,106.24338 1332.0467,106.32776 C 1331.4956,106.43206 1330.9643,106.47179 1330.478,106.47179 C 1328.7053,106.47179 1327.2105,105.99011 1326.004,105.02684 C 1324.7875,104.06351 1323.9632,102.69304 1323.5015,100.94519 L 1322.6422,101.10907 L 1323.2232,109.10347 C 1323.7047,108.59203 1324.3009,108.33385 1325.0305,108.33385 C 1325.3785,108.33385 1325.7904,108.39341 1326.2673,108.4927 C 1326.7337,108.61188 1327.1409,108.68637 1327.4984,108.73603 C 1328.2981,108.90483 1329.0576,109.03396 1329.7677,109.12335 C 1330.488,109.2127 1331.2725,109.26733 1332.1414,109.26733 C 1333.3924,109.26733 1334.6789,109.10843 1335.9946,108.80057 C 1337.2954,108.4927 1338.482,107.97631 1339.5596,107.2861 C 1340.6273,106.58599 1341.5062,105.67731 1342.1615,104.56007 C 1342.8172,103.44779 1343.1549,102.24119 1343.1549,100.94519 C 1343.1549,100.11099 1342.9759,99.336397 1342.6235,98.606467 C 1342.2709,97.886477 1341.7543,97.285657 1341.0544,96.838777 C 1340.518,96.426647 1339.8873,96.113807 1339.1823,95.860587 C 1338.4625,95.622237 1337.7622,95.413667 1337.1017,95.264697 L 1333.7054,94.336177 C 1333.472,94.281547 1333.1741,94.207057 1332.8413,94.127607 C 1332.4989,94.043187 1332.176,93.938917 1331.873,93.794937 C 1331.5652,93.640997 1331.292,93.462257 1331.0789,93.263617 C 1330.8653,93.055097 1330.7659,92.796857 1330.7659,92.479087 C 1330.7659,92.151347 1330.89,91.883207 1331.1381,91.664737 C 1331.4014,91.446267 1331.7143,91.292337 1332.0467,91.163207 C 1332.3995,91.039107 1332.7621,90.954687 1333.1196,90.924897 C 1333.4919,90.875237 1333.7896,90.850417 1334.0331,90.850417 C 1335.3191,90.850417 1336.481,91.158287 1337.5241,91.739217 C 1338.5567,92.340037 1339.3712,93.218937 1339.9621,94.415637 L 1340.7366,94.336177 z M 1310.5913,82.955307 C 1310.5913,84.107317 1310.9886,85.001087 1311.7926,85.626717 C 1312.5971,86.267297 1313.5407,86.580087 1314.6232,86.580087 C 1315.1297,86.580087 1315.636,86.510577 1316.1374,86.341777 C 1316.6341,86.177907 1317.0759,85.949487 1317.4683,85.656547 C 1317.8556,85.358617 1318.1785,84.991147 1318.4167,84.534317 C 1318.655,84.107317 1318.7743,83.610767 1318.7743,83.069517 C 1318.7743,81.912547 1318.4116,81.003867 1317.662,80.328577 C 1316.9272,79.648297 1315.9886,79.320597 1314.8613,79.320597 C 1314.3301,79.320597 1313.7941,79.400057 1313.2922,79.558957 C 1312.7709,79.722787 1312.3239,79.961147 1311.9171,80.264037 C 1311.5099,80.571897 1311.187,80.959207 1310.9489,81.396157 C 1310.7054,81.833137 1310.5913,82.354497 1310.5913,82.955307 z M 1309.1312,89.097597 L 1309.1312,90.095677 C 1310.5913,90.180057 1311.3111,91.252607 1311.3111,93.313287 L 1311.3111,104.4558 C 1311.3111,106.56611 1310.5913,107.64363 1309.1312,107.73299 L 1309.1312,108.73603 L 1321.0831,108.73603 L 1321.0831,107.73299 C 1319.6531,107.64363 1318.8935,106.56611 1318.814,104.4558 L 1318.814,88.516637 L 1309.1312,89.097597 z M 1305.4667,104.5104 L 1305.4667,81.490517 L 1295.6949,82.061547 L 1295.6949,83.069517 C 1297.1446,83.153947 1297.8795,84.231437 1297.9145,86.302057 L 1297.9145,104.5104 C 1297.8795,106.57108 1297.1446,107.64363 1295.6949,107.73299 L 1295.6949,108.73603 L 1307.731,108.73603 L 1307.731,107.73299 C 1306.2959,107.64363 1305.5363,106.57108 1305.4667,104.5104 z M 1278.9066,103.28892 L 1278.9066,91.227797 L 1280.3565,91.103647 C 1281.3494,91.103647 1282.2235,91.361847 1282.983,91.893147 C 1283.733,92.414507 1284.3585,93.069967 1284.8651,93.864447 C 1285.3566,94.653947 1285.7292,95.532837 1285.9873,96.486207 C 1286.2453,97.444557 1286.3694,98.348267 1286.3694,99.207277 C 1286.3694,100.02164 1286.2903,100.81115 1286.1312,101.57584 C 1285.9725,102.35042 1285.6743,103.07538 1285.2771,103.77057 C 1284.85,104.5104 1284.269,105.10131 1283.5493,105.54322 C 1282.8192,106.00502 1282.0246,106.24338 1281.1657,106.24338 C 1280.8627,106.24338 1280.555,106.18377 1280.2225,106.09441 C 1279.8797,106.00502 1279.6164,105.82628 1279.3882,105.58792 C 1279.0951,105.29995 1278.9412,104.92257 1278.9213,104.5104 C 1278.9166,104.06351 1278.9066,103.6663 1278.9066,103.28892 z M 1271.3592,86.302057 L 1271.3592,104.5104 C 1271.3592,106.57108 1270.6239,107.64363 1269.1792,107.73299 L 1269.1792,108.73603 L 1283.5493,108.73603 C 1284.9943,108.73603 1286.35,108.60195 1287.6209,108.31396 C 1288.887,108.03588 1290.0787,107.42019 1291.2109,106.47179 C 1292.343,105.58792 1293.1625,104.56007 1293.6687,103.418 C 1294.1901,102.25112 1294.4434,100.96508 1294.4434,99.544937 C 1294.4434,97.732547 1294.111,96.143597 1293.4552,94.728417 C 1292.7951,93.338107 1291.906,92.151347 1290.7937,91.198007 C 1289.6616,90.249607 1288.3609,89.524647 1286.8514,89.028087 C 1285.3519,88.521597 1283.7476,88.273347 1282.0445,88.273347 L 1278.9066,88.486847 L 1278.9066,81.490517 L 1269.1792,82.061547 L 1269.1792,83.069517 C 1270.6239,83.153947 1271.3592,84.231437 1271.3592,86.302057 z M 1254.8092,98.924267 C 1255.3452,98.556797 1255.9063,98.293637 1256.4873,98.144667 C 1257.0583,97.995707 1257.6592,97.866637 1258.2851,97.767297 C 1258.2851,98.378057 1258.2453,99.103017 1258.1805,99.957057 C 1258.1209,100.81115 1257.9471,101.62052 1257.6842,102.41004 C 1257.4059,103.17965 1257.0237,103.84007 1256.5322,104.39126 C 1256.0256,104.95236 1255.3651,105.22546 1254.5309,105.22546 C 1253.8211,105.22546 1253.2945,104.96226 1252.9172,104.44586 C 1252.5397,103.90461 1252.3461,103.34849 1252.3461,102.72779 C 1252.3461,101.97305 1252.6046,101.24808 1253.116,100.54798 C 1253.6222,99.842857 1254.1932,99.311587 1254.8092,98.924267 z M 1258.2851,95.175347 L 1258.2851,95.508017 C 1257.4456,95.612287 1256.5521,95.741407 1255.5786,95.920157 C 1254.6004,96.103867 1253.6222,96.337257 1252.6293,96.655057 C 1251.6363,96.962877 1250.6629,97.340297 1249.7144,97.767297 C 1248.786,98.189367 1247.9469,98.710737 1247.2267,99.311587 C 1246.5019,99.927277 1245.9109,100.6324 1245.4739,101.41196 C 1245.0221,102.2114 1244.8039,103.12505 1244.8039,104.17275 C 1244.8039,105.00695 1244.9776,105.73191 1245.3252,106.39233 C 1245.6826,107.01299 1246.1344,107.53933 1246.7006,107.97135 C 1247.2617,108.39341 1247.9071,108.72609 1248.642,108.94456 C 1249.3669,109.15313 1250.107,109.26733 1250.8565,109.26733 C 1251.4725,109.26733 1252.1425,109.19782 1252.8575,109.06373 C 1253.5625,108.92471 1254.268,108.72609 1254.9281,108.45298 C 1255.6037,108.18485 1256.2241,107.85713 1256.805,107.44998 C 1257.3812,107.04775 1257.8627,106.57108 1258.2354,106.04475 C 1258.3742,106.54627 1258.5531,107.02293 1258.7666,107.47976 C 1258.9802,107.93659 1259.2781,108.36362 1259.6653,108.73603 L 1268.0471,108.73603 L 1268.0471,107.73299 C 1267.4312,107.67839 1266.9595,107.49965 1266.6517,107.21162 C 1266.344,106.89879 1266.1304,106.54627 1265.9964,106.10929 C 1265.8871,105.68225 1265.8226,105.22546 1265.8226,104.74876 C 1265.8226,104.22739 1265.8226,103.75068 1265.8226,103.28892 L 1265.8226,95.949937 C 1265.8226,95.413667 1265.8226,94.842637 1265.8126,94.271597 C 1265.7929,93.690667 1265.728,93.129577 1265.6091,92.598267 C 1265.4799,92.057017 1265.2862,91.550537 1265.013,91.058957 C 1264.7497,90.582277 1264.3775,90.145297 1263.8909,89.772897 C 1263.5186,89.469997 1263.0764,89.231657 1262.575,89.033067 C 1262.0886,88.859247 1261.5522,88.700347 1261.011,88.596077 C 1260.4547,88.496787 1259.9035,88.422297 1259.3675,88.382577 C 1258.8263,88.342857 1258.3296,88.317997 1257.8429,88.317997 C 1256.4873,88.317997 1255.2462,88.422297 1254.0891,88.650717 C 1252.9223,88.859247 1251.7007,89.107547 1250.4147,89.400497 C 1250.1467,89.450167 1249.8735,89.514697 1249.6003,89.574267 C 1249.3371,89.623937 1249.0691,89.648757 1248.7959,89.648757 C 1248.4981,89.648757 1248.2594,89.584207 1248.0657,89.469997 C 1247.8872,89.345857 1247.6836,89.177057 1247.4753,88.963507 L 1246.6656,96.173377 L 1247.4753,96.267747 C 1248.0909,94.788037 1249.0241,93.611207 1250.2707,92.727347 C 1251.517,91.833577 1252.9669,91.386697 1254.6004,91.386697 C 1255.1515,91.386697 1255.6927,91.446267 1256.2392,91.590257 C 1256.8003,91.729307 1257.2671,91.997407 1257.6842,92.434397 C 1258.0266,92.806797 1258.2155,93.233847 1258.2354,93.700607 C 1258.27,94.167337 1258.2851,94.668857 1258.2851,95.175347 z M 1236.8142,89.201867 L 1236.8142,80.815177 C 1235.6821,81.510357 1234.5054,82.126087 1233.3036,82.642477 C 1232.0872,83.163847 1230.816,83.546187 1229.4655,83.754757 C 1229.5446,84.107317 1229.6242,84.464807 1229.6937,84.807437 C 1229.7582,85.159987 1229.7832,85.522457 1229.7832,85.894857 C 1229.7832,87.007137 1229.5149,88.005207 1228.9437,88.923817 C 1228.378,89.847377 1227.529,90.403497 1226.4016,90.651787 L 1226.4016,91.664737 L 1229.2666,91.664737 L 1229.2666,102.15677 C 1229.2666,103.05057 1229.3164,103.96919 1229.4257,104.90268 C 1229.53,105.85109 1229.9021,106.67038 1230.513,107.36556 C 1231.1039,108.0657 1231.8785,108.55729 1232.8369,108.83036 C 1233.7952,109.12335 1234.7137,109.26733 1235.6025,109.26733 C 1236.7047,109.26733 1237.7924,109.15313 1238.8601,108.94456 C 1239.9473,108.72609 1241.0003,108.39341 1242.0131,107.93659 L 1244.069,102.15677 L 1243.2394,101.839 C 1243.0457,102.24119 1242.8124,102.66326 1242.5642,103.08532 C 1242.3062,103.51237 1242.0131,103.90461 1241.6954,104.23734 C 1241.3677,104.57995 1241.015,104.85301 1240.6077,105.06656 C 1240.2057,105.27509 1239.7436,105.39427 1239.2374,105.39427 C 1238.6366,105.39427 1238.1797,105.2453 1237.8569,104.94738 C 1237.5391,104.65442 1237.2957,104.28696 1237.1319,103.85499 C 1236.9732,103.42298 1236.879,102.96118 1236.8492,102.46462 C 1236.8193,101.95818 1236.8142,101.51622 1236.8142,101.10907 L 1236.8142,91.664737 L 1239.3516,91.664737 C 1239.6494,91.664737 1239.9524,91.664737 1240.2853,91.664737 C 1240.6276,91.664737 1240.9306,91.759097 1241.1741,91.942817 L 1242.3805,88.754977 C 1242.167,88.898977 1241.864,89.003237 1241.4719,89.097597 C 1241.0794,89.172077 1240.5481,89.201867 1239.8781,89.201867 L 1236.8142,89.201867 z M 1223.2832,94.336177 L 1223.0104,88.447117 C 1222.7619,88.581207 1222.5384,88.685477 1222.34,88.754977 C 1222.1411,88.849307 1221.893,88.879137 1221.5999,88.879137 C 1221.1681,88.879137 1220.741,88.859247 1220.329,88.804647 C 1219.9166,88.754977 1219.4995,88.685477 1219.1022,88.596077 L 1215.5819,88.317997 C 1214.4,88.317997 1213.2381,88.422297 1212.0912,88.625867 C 1210.9392,88.824487 1209.8667,89.201867 1208.8387,89.772897 C 1207.816,90.314147 1206.9964,91.049007 1206.3363,91.982547 C 1205.6957,92.930947 1205.3729,93.983617 1205.3729,95.145517 C 1205.3729,95.999597 1205.5565,96.724567 1205.9141,97.340297 C 1206.2815,97.936147 1206.7531,98.457497 1207.3341,98.864667 C 1207.9103,99.291697 1208.5556,99.624377 1209.2706,99.902457 C 1209.9907,100.16564 1210.6859,100.3841 1211.3862,100.54798 L 1214.3304,101.23321 C 1214.6036,101.30769 1214.9412,101.39705 1215.3535,101.47157 C 1215.7854,101.55595 1216.1879,101.68009 1216.57,101.839 C 1216.9624,102.00287 1217.3001,102.2114 1217.5582,102.46462 C 1217.8313,102.70796 1217.9653,103.03566 1217.9653,103.418 C 1217.9653,104.02876 1217.7963,104.53028 1217.4639,104.92257 C 1217.1164,105.31978 1216.704,105.6177 1216.2077,105.85109 C 1215.7159,106.0795 1215.1797,106.24338 1214.6187,106.32776 C 1214.0524,106.43206 1213.5263,106.47179 1213.0344,106.47179 C 1211.2669,106.47179 1209.7673,105.99011 1208.5609,105.02684 C 1207.354,104.06351 1206.5149,102.69304 1206.0632,100.94519 L 1205.2142,101.10907 L 1205.7753,109.10347 C 1206.2569,108.59203 1206.8676,108.33385 1207.5925,108.33385 C 1207.9449,108.33385 1208.3473,108.39341 1208.8289,108.4927 C 1209.2957,108.61188 1209.7029,108.68637 1210.0504,108.73603 C 1210.8596,108.90483 1211.6243,109.03396 1212.3345,109.12335 C 1213.0495,109.2127 1213.8389,109.26733 1214.6931,109.26733 C 1215.9643,109.26733 1217.2504,109.10843 1218.5463,108.80057 C 1219.8522,108.4927 1221.0487,107.97631 1222.1212,107.2861 C 1223.1941,106.58599 1224.063,105.67731 1224.7283,104.56007 C 1225.3789,103.44779 1225.7113,102.24119 1225.7113,100.94519 C 1225.7113,100.11099 1225.5375,99.336397 1225.19,98.606467 C 1224.8376,97.886477 1224.3163,97.285657 1223.6207,96.838777 C 1223.0795,96.426647 1222.4493,96.113807 1221.7391,95.860587 C 1221.0241,95.622237 1220.3337,95.413667 1219.6534,95.264697 L 1216.267,94.336177 C 1216.0189,94.281547 1215.7409,94.207057 1215.3981,94.127607 C 1215.0656,94.043187 1214.7427,93.938917 1214.435,93.794937 C 1214.1272,93.640997 1213.8687,93.462257 1213.6552,93.263617 C 1213.427,93.055097 1213.3227,92.796857 1213.3227,92.479087 C 1213.3227,92.151347 1213.4515,91.883207 1213.7049,91.664737 C 1213.963,91.446267 1214.2712,91.292337 1214.6187,91.163207 C 1214.971,91.039107 1215.3185,90.954687 1215.6761,90.924897 C 1216.0486,90.875237 1216.3516,90.850417 1216.5899,90.850417 C 1217.8859,90.850417 1219.053,91.158287 1220.0757,91.739217 C 1221.1135,92.340037 1221.9375,93.218937 1222.5284,94.415637 L 1223.2832,94.336177 z M 1177.7303,108.73603 L 1197.7411,108.73603 C 1198.2027,108.73603 1198.6397,108.75588 1199.0569,108.80057 C 1199.4789,108.83036 1199.8414,109.03396 1200.1592,109.39148 L 1203.5953,98.894487 L 1202.7563,98.561767 C 1202.2099,99.664107 1201.5991,100.68202 1200.9239,101.5907 C 1200.2236,102.51429 1199.449,103.3038 1198.5753,103.96919 C 1197.7013,104.65442 1196.7279,105.16088 1195.6653,105.52836 C 1194.608,105.90076 1193.4309,106.0795 1192.1449,106.0795 C 1191.4645,106.09441 1190.8636,106.05469 1190.3475,105.94546 C 1189.8262,105.81137 1189.384,105.57301 1189.0463,105.21552 C 1188.7139,104.84311 1188.4805,104.35154 1188.3166,103.73084 C 1188.1823,103.11511 1188.1429,102.31567 1188.2172,101.30769 L 1188.2172,93.516857 L 1189.3096,93.516857 C 1190.3077,93.516857 1191.241,93.551607 1192.1202,93.621157 C 1192.9939,93.690667 1193.8234,94.097817 1194.598,94.822787 C 1195.0596,95.219997 1195.4419,95.676837 1195.7746,96.173377 C 1196.0924,96.694787 1196.3604,97.235987 1196.5791,97.797077 L 1197.3784,97.722597 L 1195.6109,87.463957 L 1194.8064,87.588107 C 1194.8064,88.486847 1194.6573,89.147267 1194.3494,89.609017 C 1194.0564,90.060917 1193.6595,90.373707 1193.153,90.552497 C 1192.6714,90.731247 1192.1051,90.820597 1191.4645,90.835507 C 1190.839,90.850417 1190.1884,90.850417 1189.5132,90.850417 L 1188.2172,90.850417 L 1188.2172,89.574267 C 1188.2172,88.754977 1188.232,88.059797 1188.2371,87.463957 C 1188.2471,86.882987 1188.366,86.386437 1188.5795,85.999157 C 1188.7982,85.606877 1189.1656,85.313917 1189.6817,85.135137 C 1190.1884,84.941517 1190.9483,84.847157 1191.9365,84.847157 C 1192.9294,84.847157 1193.8977,84.991147 1194.8163,85.274197 C 1195.7547,85.552237 1196.5891,85.959437 1197.3437,86.510577 C 1198.0934,87.041887 1198.7539,87.702307 1199.3202,88.486847 C 1199.886,89.256497 1200.3179,90.135397 1200.601,91.103647 L 1201.4949,90.820597 L 1199.4442,81.545107 C 1199.2505,81.763587 1199.0171,81.902647 1198.7292,82.001947 C 1198.4461,82.091337 1198.1483,82.165807 1197.8401,82.185657 C 1197.5422,82.210507 1197.2197,82.215447 1196.9016,82.210507 C 1196.5791,82.185657 1196.2861,82.185657 1196.0479,82.185657 L 1177.7303,82.185657 L 1177.7303,83.198647 C 1178.5594,83.163847 1179.1404,83.476677 1179.4729,84.122187 C 1179.7857,84.762737 1179.9547,85.805497 1179.9547,87.225597 L 1179.9547,103.69111 C 1179.9547,105.12612 1179.7857,106.15398 1179.4729,106.79452 C 1179.1404,107.44998 1178.5594,107.75287 1177.7303,107.73299 L 1177.7303,108.73603"
         style="fill:#008356;fill-rule:nonzero;stroke:none"
         id="path41694" />
      <path
         d="M 1640.7552,190.90453 L 1640.7552,246.94482 C 1640.7552,248.80687 1640.7154,250.62423 1640.626,252.38202 C 1640.5265,254.14971 1640.1842,255.77341 1639.5782,257.25312 C 1638.9725,258.73283 1638.0686,259.96428 1636.867,260.93254 C 1635.6556,261.90078 1633.9374,262.57612 1631.7177,262.9535 L 1631.7177,264.20976 L 1665.1007,264.20976 L 1665.1007,262.9535 C 1662.8811,262.76481 1661.1581,262.14411 1659.9416,261.06658 C 1658.7451,260.01392 1657.8412,258.69311 1657.2455,257.10416 C 1656.6347,255.54003 1656.2872,253.76736 1656.1925,251.8358 C 1656.1082,249.87445 1656.0537,247.93294 1656.0537,245.99144 L 1656.0537,215.66733 L 1669.2666,205.10082 C 1672.7922,208.99871 1676.1388,213.0108 1679.2871,217.13213 C 1682.4254,221.24355 1685.3548,225.59826 1688.0363,230.13669 C 1688.9695,231.72071 1690.0126,233.67709 1691.1793,236.0357 C 1692.3265,238.4042 1693.419,240.88199 1694.437,243.48387 C 1695.4644,246.08083 1696.3385,248.60824 1697.0785,251.06614 C 1697.8233,253.52404 1698.1955,255.66915 1698.1955,257.52623 C 1698.1955,259.11517 1697.7486,260.35654 1696.865,261.28013 C 1695.9857,262.2186 1694.8091,262.76481 1693.3294,262.9535 L 1693.3294,264.20976 L 1723.9166,264.20976 L 1723.9166,262.9535 C 1722.3427,262.76481 1720.9971,262.2186 1719.8895,261.28013 C 1718.7725,260.35654 1717.8242,259.24923 1717.0344,257.95327 C 1716.2451,256.64734 1715.5698,255.2719 1715.0235,253.84185 C 1714.4624,252.41677 1713.8865,251.04133 1713.3553,249.7354 L 1710.7037,243.34485 C 1706.9793,234.29281 1702.8831,225.81674 1698.0516,218.03588 C 1693.2301,210.25001 1687.1972,202.9756 1679.9723,196.20765 L 1690.4,187.57768 C 1692.3265,185.98873 1694.2977,184.42958 1696.2391,182.86047 C 1698.1955,181.27649 1700.2065,179.86629 1702.3021,178.61007 C 1704.3775,177.34882 1706.5773,176.316 1708.9012,175.48677 C 1711.2251,174.64263 1713.7275,174.13618 1716.4141,173.94749 L 1716.4141,172.69619 L 1682.8871,172.69619 L 1682.8871,173.94749 C 1684.0044,174.13618 1684.9131,174.40924 1685.6082,174.78164 C 1686.2934,175.14912 1686.6607,175.99325 1686.6607,177.28921 C 1686.6607,178.59515 1685.8515,180.20394 1684.2824,182.15042 C 1682.7081,184.10187 1680.8808,186.0483 1678.7904,187.99478 C 1676.7,189.94619 1674.6445,191.76852 1672.6037,193.48658 C 1670.5677,195.20464 1669.0483,196.48573 1668.0203,197.30999 L 1656.0537,206.91321 L 1656.0537,189.94619 C 1656.0537,187.99478 1656.1082,186.10791 1656.1925,184.3104 C 1656.2872,182.51292 1656.6347,180.85939 1657.2455,179.36974 C 1657.8412,177.89998 1658.7451,176.66359 1659.9416,175.6854 C 1661.1581,174.71711 1662.8811,174.13618 1665.1007,173.94749 L 1665.1007,172.69619 L 1631.7177,172.69619 L 1631.7177,173.94749 C 1633.9374,174.31492 1635.6556,175.03989 1636.867,176.10747 C 1638.0686,177.17003 1638.9725,178.48591 1639.5782,180.06492 C 1640.1842,181.6489 1640.5265,183.35702 1640.626,185.21908 C 1640.7154,187.07615 1640.7552,188.968 1640.7552,190.90453 z M 1605.848,190.90453 L 1605.848,207.45943 L 1574.1434,181.04808 C 1571.7201,179.02717 1570.3246,177.34882 1569.8928,176.10747 C 1569.4856,174.85617 1570.4392,174.13618 1572.758,173.94749 L 1572.758,172.69619 L 1536.1773,172.69619 L 1536.1773,173.94749 C 1538.4018,174.2305 1540.1248,174.93064 1541.3313,176.03294 C 1542.5331,177.1502 1543.4416,178.48591 1544.0377,180.06492 C 1544.6286,181.6489 1544.9862,183.35702 1545.0804,185.21908 C 1545.1746,187.07615 1545.2144,188.968 1545.2144,190.90453 L 1545.2144,246.94482 C 1545.2144,248.80687 1545.1746,250.63914 1545.0804,252.4565 C 1544.9862,254.25895 1544.6286,255.88762 1544.0377,257.31766 C 1543.4416,258.76758 1542.5331,259.98413 1541.3313,261.00205 C 1540.1248,262.03487 1538.4018,262.68038 1536.1773,262.9535 L 1536.1773,264.20976 L 1563.2937,264.20976 L 1563.2937,262.9535 C 1561.0741,262.76481 1559.361,262.14411 1558.1497,261.06658 C 1556.9527,260.01392 1556.0342,258.67326 1555.4433,257.10416 C 1554.8424,255.54003 1554.4901,253.76736 1554.3906,251.8358 C 1554.2964,249.87445 1554.2515,247.93294 1554.2515,245.99144 L 1554.2515,183.82875 L 1598.2011,220.40439 C 1599.6211,221.57623 1601.0017,222.83747 1602.4464,224.0838 C 1603.8815,225.3351 1604.8048,226.68072 1605.2272,228.11577 C 1605.6392,229.54582 1605.848,231.84482 1605.848,235.00286 L 1605.848,246.94482 C 1605.848,248.90616 1605.7831,250.78811 1605.6392,252.59055 C 1605.5004,254.40294 1605.1428,256.04652 1604.5222,257.52623 C 1603.9261,259.02082 1602.9975,260.22745 1601.7513,261.14106 C 1600.49,262.06963 1598.7522,262.68038 1596.5325,262.9535 L 1596.5325,264.20976 L 1623.9273,264.20976 L 1623.9273,262.9535 C 1621.7024,262.68038 1619.9893,261.97526 1618.7828,260.85805 C 1617.5712,259.75572 1616.6725,258.43491 1616.0668,256.91051 C 1615.476,255.37123 1615.1232,253.65316 1615.029,251.76132 C 1614.9347,249.8496 1614.885,247.93294 1614.885,245.99144 L 1614.885,189.94619 C 1614.885,188.08418 1614.9347,186.26184 1615.029,184.45935 C 1615.1232,182.63702 1615.476,181.01332 1616.0668,179.57831 C 1616.6725,178.1433 1617.5712,176.91681 1618.7828,175.8989 C 1619.9893,174.87601 1621.7024,174.2305 1623.9273,173.94749 L 1623.9273,172.69619 L 1596.5325,172.69619 L 1596.5325,173.94749 C 1598.8516,174.2305 1600.6438,174.87601 1601.8905,175.8989 C 1603.1315,176.91681 1604.07,178.21778 1604.6661,179.79181 C 1605.2617,181.36589 1605.6145,183.12861 1605.7087,185.08005 C 1605.803,187.03147 1605.848,188.968 1605.848,190.90453 z M 1485.3758,183.12861 L 1500.8084,227.6341 C 1497.1933,223.83057 1492.8983,221.00023 1487.9426,219.14314 C 1482.9871,217.296 1477.9027,216.41214 1472.7137,216.51148 L 1485.3758,183.12861 z M 1462.5692,245.57434 L 1470.6281,223.45813 C 1476.1896,223.55746 1481.319,224.56544 1485.9914,226.51192 C 1490.6837,228.46332 1494.7107,230.8716 1498.0972,233.75156 C 1501.4836,236.6216 1504.1252,239.79949 1506.0272,243.28524 C 1507.9287,246.74619 1508.8672,250.06314 1508.8672,253.21125 C 1508.8672,255.6344 1508.3657,257.70497 1507.353,259.46774 C 1506.3298,261.2404 1504.567,262.39734 1502.0546,262.9535 L 1502.0546,264.20976 L 1533.6252,264.20976 L 1533.6252,262.9535 C 1530.8495,262.2186 1528.9921,260.96232 1528.0687,259.19463 C 1527.1402,257.43187 1526.038,255.3414 1525.1492,252.79912 L 1501.3595,184.37493 C 1501.1162,183.63013 1500.8084,182.76614 1500.5304,181.74325 C 1500.2421,180.72038 1500.1181,179.79181 1500.1181,178.94771 C 1500.1181,176.35572 1501.459,174.68235 1504.1451,173.94749 L 1504.1451,172.69619 L 1473.2796,172.69619 L 1473.2796,173.94749 C 1474.4765,174.13618 1475.5044,174.6029 1476.3335,175.33781 C 1477.1678,176.07268 1477.585,177.09555 1477.585,178.40149 C 1477.585,179.79181 1477.3563,181.16229 1476.8847,182.51292 C 1476.433,183.8486 1475.9907,185.17438 1475.5044,186.46043 L 1453.1102,245.57434 C 1452.3455,247.60026 1451.4615,249.79997 1450.399,252.17842 C 1449.3364,254.53703 1448.1446,256.64734 1446.8487,258.49448 C 1445.8255,259.9742 1444.7929,261.00205 1443.7251,261.56314 C 1442.6677,262.1193 1441.2971,262.57612 1439.6137,262.9535 L 1439.6137,264.20976 L 1467.9963,264.20976 L 1467.9963,262.9535 C 1465.9508,262.76481 1464.163,262.03487 1462.6288,260.73391 C 1461.1046,259.42802 1460.3347,257.66525 1460.3347,255.44074 C 1460.3347,253.76736 1460.5682,252.10891 1461.035,250.44052 C 1461.5014,248.76714 1462.0132,247.14344 1462.5692,245.57434 z M 1381.9797,246.82066 L 1381.9797,215.66733 L 1402.9835,207.74244 C 1405.6649,208.86462 1408.3216,210.31455 1410.9234,212.11206 C 1413.5006,213.93936 1415.8241,215.97022 1417.8601,218.24938 C 1419.9061,220.51362 1421.5595,223.04107 1422.801,225.81674 C 1424.0572,228.59741 1424.6727,231.57171 1424.6727,234.71489 C 1424.6727,238.34463 1423.8237,241.80557 1422.1055,245.16221 C 1420.3975,248.4841 1418.0391,251.23002 1414.9505,253.21125 C 1411.8273,255.21232 1408.2174,256.41395 1404.2449,256.98498 C 1400.2527,257.52623 1396.4492,257.80431 1392.8242,257.80431 C 1390.3317,257.80431 1388.3602,257.66525 1386.9254,257.39214 C 1385.4855,257.10416 1384.398,256.56292 1383.6531,255.71384 C 1382.9183,254.88462 1382.4514,253.74753 1382.263,252.30754 C 1382.0741,250.87249 1381.9797,249.05015 1381.9797,246.82066 z M 1381.9797,209.12285 L 1381.9797,190.63142 C 1381.9797,189.33547 1382.0542,187.76637 1382.1981,185.91425 C 1382.3373,184.06214 1382.7047,182.70161 1383.38,181.87731 C 1383.9164,181.21195 1384.7701,180.72038 1385.8776,180.343 C 1386.995,179.9706 1388.2262,179.70245 1389.5619,179.51874 C 1390.9174,179.33005 1392.2532,179.21585 1393.604,179.17115 C 1394.9397,179.12149 1396.0865,179.09668 1397.0103,179.09668 C 1398.4801,179.09668 1400.2329,179.15127 1402.2287,179.22575 C 1404.2102,179.33005 1406.1071,179.60312 1407.9243,180.06492 C 1409.7316,180.53169 1411.281,181.32119 1412.5821,182.43844 C 1413.878,183.54073 1414.5282,185.12475 1414.5282,187.15561 C 1414.5282,190.12994 1413.2573,192.82123 1410.7047,195.23443 C 1408.1625,197.63276 1405.1487,199.77285 1401.6676,201.62994 C 1398.2016,203.48205 1394.6169,205.03624 1390.9524,206.29252 C 1387.2929,207.53391 1384.3084,208.49719 1381.9797,209.12285 z M 1408.689,172.69619 L 1357.6437,172.69619 L 1357.6437,173.94749 C 1359.8785,174.2305 1361.5916,174.93064 1362.793,176.03294 C 1363.9946,177.1502 1364.8834,178.48591 1365.4445,180.06492 C 1365.9909,181.6489 1366.3384,183.35702 1366.4875,185.21908 C 1366.6164,187.07615 1366.6912,188.968 1366.6912,190.90453 L 1366.6912,246.94482 C 1366.6912,248.80687 1366.6164,250.63914 1366.4875,252.4565 C 1366.3384,254.25895 1365.9909,255.88762 1365.4445,257.31766 C 1364.8834,258.76758 1363.9946,259.98413 1362.793,261.00205 C 1361.5916,262.03487 1359.8785,262.68038 1357.6437,262.9535 L 1357.6437,264.20976 L 1392.5661,264.20976 C 1397.8343,264.20976 1403.232,264.07071 1408.7634,263.7877 C 1414.2701,263.51458 1419.5187,262.35268 1424.5387,260.44593 C 1429.7177,258.47961 1433.69,255.44074 1436.421,251.27471 C 1439.1669,247.10869 1440.5324,242.24252 1440.5324,236.6663 C 1440.5324,232.40097 1439.6487,228.57753 1437.8907,225.19607 C 1436.1331,221.81459 1433.8044,218.82538 1430.9342,216.23836 C 1428.0643,213.62653 1424.8166,211.39704 1421.2067,209.54986 C 1417.587,207.70272 1413.9671,206.16841 1410.3524,204.96673 C 1412.3884,203.84953 1414.6176,202.66774 1417.041,201.41644 C 1419.4392,200.17011 1421.6835,198.73013 1423.7787,197.10643 C 1425.8545,195.48765 1427.6022,193.65045 1428.9929,191.61459 C 1430.3731,189.57875 1431.0782,187.21024 1431.0782,184.51897 C 1431.0782,181.6489 1430.2935,179.42438 1428.7196,177.84538 C 1427.1405,176.26633 1425.214,175.08951 1422.9397,174.30498 C 1420.6755,173.50553 1418.2275,173.04374 1415.6356,172.91467 C 1413.0385,172.7657 1410.7246,172.69619 1408.689,172.69619 z M 1291.3302,214.56002 L 1291.3302,190.78039 C 1291.3302,189.48443 1291.4144,187.92527 1291.5982,186.10791 C 1291.7819,184.3104 1292.2487,182.99455 1293.0035,182.15042 C 1293.639,181.41555 1294.6371,180.83458 1295.9879,180.41251 C 1297.3236,180.00535 1298.818,179.70245 1300.4416,179.51874 C 1302.0505,179.33005 1303.6296,179.21585 1305.159,179.17115 C 1306.6983,179.12149 1307.9644,179.09668 1308.9824,179.09668 C 1311.0331,179.09668 1313.0492,179.18602 1315.0351,179.36974 C 1317.0265,179.5634 1318.814,180.04508 1320.3931,180.83458 C 1321.967,181.62408 1323.2431,182.73637 1324.2114,184.16143 C 1325.1896,185.61137 1325.6763,187.57768 1325.6763,190.08524 C 1325.6763,193.31778 1324.3553,196.29704 1321.709,198.98335 C 1319.0721,201.6647 1315.8944,204.05805 1312.1851,206.14355 C 1308.481,208.22905 1304.7072,209.99181 1300.854,211.4318 C 1297.0007,212.86184 1293.8326,213.90461 1291.3302,214.56002 z M 1320.8102,172.69619 L 1266.9893,172.69619 L 1266.9893,173.94749 C 1269.2237,174.2305 1270.9369,174.93064 1272.1385,176.03294 C 1273.3403,177.1502 1274.2536,178.48591 1274.8597,180.06492 C 1275.4506,181.6489 1275.793,183.35702 1275.8876,185.21908 C 1275.9866,187.07615 1276.0264,188.968 1276.0264,190.90453 L 1276.0264,246.82066 C 1276.0264,248.76714 1275.9866,250.62423 1275.8876,252.38202 C 1275.793,254.14971 1275.4506,255.77341 1274.8597,257.25312 C 1274.2536,258.73283 1273.3403,259.96428 1272.1385,260.93254 C 1270.9369,261.90078 1269.2237,262.57612 1266.9893,262.9535 L 1266.9893,264.20976 L 1300.3724,264.20976 L 1300.3724,262.9535 C 1298.1427,262.68038 1296.4245,262.03487 1295.218,261.00205 C 1294.0163,259.98413 1293.1076,258.73283 1292.5069,257.25312 C 1291.906,255.7585 1291.5635,254.0802 1291.4693,252.17842 C 1291.3746,250.27167 1291.3302,248.21595 1291.3302,245.99144 L 1291.3302,221.09956 L 1307.4531,215.52831 L 1308.8432,217.3407 L 1323.1687,238.05661 C 1323.8984,239.1242 1324.584,240.58406 1325.4675,242.30705 C 1326.3515,244.01021 1327.1607,245.77794 1327.9009,247.58535 C 1328.6504,249.39774 1329.2862,251.17041 1329.8573,252.93814 C 1330.3933,254.69593 1330.6764,256.22526 1330.6764,257.52623 C 1330.6764,259.28895 1330.2247,260.57501 1329.2862,261.35461 C 1328.3577,262.14411 1327.1063,262.68038 1325.5324,262.9535 L 1325.5324,264.20976 L 1354.8781,264.20976 L 1354.8781,262.9535 C 1353.3984,262.68038 1352.1422,262.14411 1351.1242,261.35461 C 1350.1114,260.57501 1349.2473,259.61173 1348.5621,258.49448 C 1347.852,257.39214 1347.2463,256.2104 1346.7396,254.95413 C 1346.2334,253.69785 1345.6473,252.49125 1345.1606,251.27471 C 1342.1217,243.88113 1338.7253,236.59181 1334.7877,229.51603 C 1330.8454,222.4154 1326.1777,215.85602 1320.8102,209.83291 C 1323.0295,208.62134 1325.3287,207.3055 1327.6873,205.86551 C 1330.051,204.43046 1332.2157,202.76703 1334.1623,200.86032 C 1336.0989,198.9486 1337.7026,196.87304 1338.954,194.60383 C 1340.2102,192.32468 1340.8257,189.7575 1340.8257,186.8825 C 1340.8257,182.15042 1339.366,178.61007 1336.4464,176.24649 C 1333.5316,173.88788 1328.318,172.69619 1320.8102,172.69619 z M 1256.5919,198.98335 L 1250.34,171.03272 C 1249.3172,172.05068 1248.1254,172.59189 1246.7897,172.63161 C 1245.4393,172.67133 1244.1234,172.69619 1242.8175,172.69619 L 1183.3014,172.69619 L 1183.3014,173.94749 C 1185.5359,174.31492 1187.239,175.0647 1188.4506,176.17698 C 1189.6671,177.28921 1190.561,178.61007 1191.1567,180.1394 C 1191.7575,181.66878 1192.1051,183.38684 1192.1993,185.29355 C 1192.304,187.1854 1192.3485,189.05739 1192.3485,190.90453 L 1192.3485,246.94482 C 1192.3485,248.80687 1192.304,250.62423 1192.1993,252.38202 C 1192.1051,254.14971 1191.7575,255.77341 1191.1567,257.25312 C 1190.561,258.73283 1189.6671,259.96428 1188.4506,260.93254 C 1187.239,261.90078 1185.5359,262.57612 1183.3014,262.9535 L 1183.3014,264.20976 L 1247.1373,264.20976 C 1248.2499,264.20976 1249.3621,264.24945 1250.4744,264.34878 C 1251.5866,264.43817 1252.5151,264.98435 1253.2547,266.00724 L 1265.0726,231.39296 L 1263.6872,230.96592 C 1259.3225,239.78462 1253.7813,246.44826 1247.0629,250.9867 C 1240.3445,255.54003 1231.9826,257.80431 1221.9625,257.80431 C 1218.4521,257.80431 1215.7059,257.52623 1213.7594,256.98498 C 1211.8132,256.41395 1210.3929,255.52018 1209.5192,254.25895 C 1208.6304,253.01262 1208.1087,251.40876 1207.9051,249.46232 C 1207.7265,247.51585 1207.6423,245.20194 1207.6423,242.51562 L 1207.6423,205.23488 L 1210.9837,205.23488 C 1214.6883,205.23488 1218.025,205.33421 1220.9891,205.5229 C 1223.9587,205.70164 1226.5904,206.3124 1228.9191,207.32038 C 1231.243,208.34325 1233.254,209.94712 1234.9623,212.11206 C 1236.6802,214.3068 1238.14,217.43502 1239.3564,221.51666 L 1240.4591,221.09956 L 1235.0366,189.94619 L 1233.7852,190.35835 C 1233.8794,192.67227 1233.4079,194.41018 1232.3951,195.58202 C 1231.3671,196.73895 1230.1057,197.5384 1228.5664,198.01511 C 1227.0323,198.47686 1225.3537,198.71024 1223.4867,198.71024 C 1221.734,198.71024 1220.026,198.71024 1218.3526,198.71024 L 1207.6423,198.71024 L 1207.6423,190.78039 C 1207.6423,188.27285 1207.8557,186.26184 1208.2626,184.72252 C 1208.6797,183.19319 1209.3999,182.0114 1210.4127,181.17223 C 1211.4406,180.343 1212.7616,179.79181 1214.3952,179.51874 C 1216.0041,179.22575 1218.025,179.09668 1220.438,179.09668 C 1224.063,179.09668 1227.6132,179.48892 1231.1389,180.27847 C 1234.6692,181.06797 1238.006,182.28943 1241.1542,183.96281 C 1244.302,185.62623 1247.1174,187.74155 1249.5705,190.29874 C 1252.0236,192.84604 1253.9949,195.87498 1255.4892,199.40542 L 1256.5919,198.98335 z M 1121.1684,246.82066 L 1121.1684,215.66733 L 1142.1725,207.74244 C 1144.8539,208.86462 1147.4903,210.31455 1150.0874,212.11206 C 1152.6892,213.93936 1155.008,215.97022 1157.0392,218.24938 C 1159.0899,220.51362 1160.7334,223.04107 1161.9749,225.81674 C 1163.2311,228.59741 1163.8617,231.57171 1163.8617,234.71489 C 1163.8617,238.34463 1162.9976,241.80557 1161.2845,245.16221 C 1159.5663,248.4841 1157.2178,251.23002 1154.1192,253.21125 C 1151.0111,255.21232 1147.406,256.41395 1143.414,256.98498 C 1139.4414,257.52623 1135.618,257.80431 1131.9933,257.80431 C 1129.5104,257.80431 1127.5241,257.66525 1126.0842,257.39214 C 1124.6443,257.10416 1123.6016,256.56292 1122.8569,255.71384 C 1122.112,254.88462 1121.6153,253.74753 1121.417,252.30754 C 1121.2678,250.87249 1121.1684,249.05015 1121.1684,246.82066 z M 1121.1684,209.12285 L 1121.1684,190.63142 C 1121.1684,189.33547 1121.2181,187.76637 1121.3672,185.91425 C 1121.516,184.06214 1121.8635,182.70161 1122.559,181.87731 C 1123.105,181.21195 1123.9492,180.72038 1125.0912,180.343 C 1126.1836,179.9706 1127.3754,179.70245 1128.7655,179.51874 C 1130.1064,179.33005 1131.447,179.21585 1132.7879,179.17115 C 1134.1283,179.12149 1135.2704,179.09668 1136.1643,179.09668 C 1137.654,179.09668 1139.3916,179.15127 1141.378,179.22575 C 1143.414,179.33005 1145.2909,179.60312 1147.0982,180.06492 C 1148.9055,180.53169 1150.4596,181.32119 1151.7508,182.43844 C 1153.0566,183.54073 1153.7072,185.12475 1153.7072,187.15561 C 1153.7072,190.12994 1152.436,192.82123 1149.8838,195.23443 C 1147.3316,197.63276 1144.3226,199.77285 1140.8316,201.62994 C 1137.3561,203.48205 1133.7808,205.03624 1130.1562,206.29252 C 1126.4814,207.53391 1123.5022,208.49719 1121.1684,209.12285 z M 1147.8629,172.69619 L 1096.8375,172.69619 L 1096.8375,173.94749 C 1099.0723,174.2305 1100.7604,174.93064 1101.9522,176.03294 C 1103.1936,177.1502 1104.0374,178.48591 1104.6335,180.06492 C 1105.1795,181.6489 1105.5271,183.35702 1105.6762,185.21908 C 1105.8253,187.07615 1105.875,188.968 1105.875,190.90453 L 1105.875,246.94482 C 1105.875,248.80687 1105.8253,250.63914 1105.6762,252.4565 C 1105.5271,254.25895 1105.1795,255.88762 1104.6335,257.31766 C 1104.0374,258.76758 1103.1936,259.98413 1101.9522,261.00205 C 1100.7604,262.03487 1099.0723,262.68038 1096.8375,262.9535 L 1096.8375,264.20976 L 1131.7448,264.20976 C 1137.0082,264.20976 1142.4206,264.07071 1147.9373,263.7877 C 1153.4492,263.51458 1158.7025,262.35268 1163.7174,260.44593 C 1168.8964,258.47961 1172.8639,255.44074 1175.61,251.27471 C 1178.3506,247.10869 1179.7162,242.24252 1179.7162,236.6663 C 1179.7162,232.40097 1178.8274,228.57753 1177.0699,225.19607 C 1175.3117,221.81459 1172.9931,218.82538 1170.1081,216.23836 C 1167.243,213.62653 1163.9905,211.39704 1160.3859,209.54986 C 1156.7708,207.70272 1153.1509,206.16841 1149.5362,204.96673 C 1151.5722,203.84953 1153.7915,202.66774 1156.2149,201.41644 C 1158.6231,200.17011 1160.8626,198.73013 1162.9531,197.10643 C 1165.0432,195.48765 1166.7761,193.65045 1168.1667,191.61459 C 1169.557,189.57875 1170.252,187.21024 1170.252,184.51897 C 1170.252,181.6489 1169.4626,179.42438 1167.8836,177.84538 C 1166.3144,176.26633 1164.3879,175.08951 1162.1287,174.30498 C 1159.8346,173.50553 1157.4213,173.04374 1154.8143,172.91467 C 1152.2224,172.7657 1149.8985,172.69619 1147.8629,172.69619 z M 1082.8846,199.11248 L 1077.3234,171.43495 C 1076.5786,172.27412 1075.8339,172.90472 1075.1388,173.31684 C 1074.4432,173.74389 1073.5,173.93754 1072.3082,173.93754 C 1070.8186,173.93754 1069.329,173.77864 1067.9388,173.45587 C 1066.4985,173.1381 1064.9592,172.79051 1063.4203,172.42308 C 1061.8312,172.05068 1060.0434,171.70309 1058.1072,171.38031 C 1056.1706,171.05261 1053.9362,170.88377 1051.4533,170.88377 C 1047.9276,170.88377 1044.3031,171.30583 1040.579,172.14003 C 1036.9043,172.96925 1033.4288,174.29504 1030.3004,176.10747 C 1027.1721,177.90494 1024.5901,180.25858 1022.5541,183.12363 C 1020.5683,185.99371 1019.5749,189.51422 1019.5749,193.69515 C 1019.5749,196.94255 1020.1213,199.69838 1021.164,201.96759 C 1022.2563,204.23684 1023.6962,206.18825 1025.5831,207.80698 C 1027.4206,209.43565 1029.5556,210.78629 1032.0382,211.9035 C 1034.4714,213.02074 1037.0534,213.99893 1039.7348,214.83313 L 1058.256,220.53351 C 1060.5898,221.27831 1062.9733,222.06284 1065.4062,222.88714 C 1067.8891,223.73621 1070.0738,224.82861 1072.0104,226.16433 C 1073.947,227.50502 1075.536,229.17839 1076.8268,231.16952 C 1078.0682,233.1706 1078.7136,235.6881 1078.7136,238.75179 C 1078.7136,241.4381 1078.0185,243.93573 1076.6781,246.26455 C 1075.3372,248.5884 1073.4503,250.58451 1071.1164,252.30754 C 1068.7333,254.02556 1065.9525,255.39106 1062.6754,256.41395 C 1059.4476,257.43187 1055.9718,257.93836 1052.2478,257.93836 C 1047.8286,257.93836 1043.7073,257.20345 1039.8839,255.71384 C 1036.1102,254.23413 1032.6343,252.16847 1029.6053,249.52686 C 1026.5268,246.89017 1023.895,243.81162 1021.6606,240.2762 C 1019.4755,236.76065 1017.7378,232.96206 1016.546,228.88042 L 1015.2552,229.29259 L 1023.3486,264.06076 C 1023.9944,263.31595 1024.6895,262.71017 1025.4343,262.24341 C 1026.1792,261.79155 1027.0726,261.56314 1028.066,261.56314 C 1029.7541,261.56314 1031.5419,261.79155 1033.4288,262.24341 C 1035.3156,262.71017 1037.3512,263.22656 1039.4866,263.7877 C 1041.6216,264.33387 1043.8064,264.85031 1046.1402,265.31703 C 1048.474,265.7838 1050.8575,266.00724 1053.2408,266.00724 C 1058.0575,266.00724 1062.8242,265.23758 1067.5415,263.72312 C 1072.3082,262.18384 1076.529,259.99407 1080.2032,257.17367 C 1083.9273,254.34834 1086.9069,250.89734 1089.191,246.82066 C 1091.4752,242.73906 1092.5675,238.146 1092.5675,233.04152 C 1092.5675,229.43161 1092.0211,226.07 1090.8791,222.96655 C 1089.6873,219.85816 1087.8004,217.05765 1085.0693,214.54515 C 1082.6862,212.23124 1079.9054,210.44366 1076.7771,209.19236 C 1073.5994,207.94108 1070.4213,206.80895 1067.293,205.79596 L 1047.8286,199.95658 C 1046.5374,199.5792 1045.0479,199.14225 1043.4091,198.63576 C 1041.8205,198.12434 1040.2812,197.4937 1038.7915,196.7489 C 1037.3015,196.00906 1036.0604,195.05569 1035.0174,193.89871 C 1034.0244,192.74674 1033.4785,191.34152 1033.4785,189.66318 C 1033.4785,187.53299 1034.1239,185.7206 1035.3156,184.23591 C 1036.5074,182.76614 1037.9971,181.57441 1039.7348,180.69059 C 1041.5222,179.81667 1043.4091,179.16121 1045.4451,178.73914 C 1047.4811,178.33199 1049.368,178.11844 1051.0063,178.11844 C 1054.3334,178.11844 1057.6105,178.63984 1060.8379,179.64782 C 1064.016,180.66573 1066.9952,182.13554 1069.7263,184.02241 C 1072.4573,185.9242 1074.8902,188.1785 1076.9759,190.77049 C 1079.0612,193.36741 1080.6502,196.24738 1081.7425,199.39549 L 1082.8846,199.11248"
         style="fill:#008356;fill-rule:nonzero;stroke:none"
         id="path41698" />
    </g>
  </g>
</svg>
