<?xml version="1.0" encoding="utf-8"?>
<!DOCTYPE svg PUBLIC "-//W3C//DTD SVG 1.1//EN" "http://www.w3.org/Graphics/SVG/1.1/DTD/svg11.dtd">
<svg version="1.1" id="Layer_1" xmlns="http://www.w3.org/2000/svg" xmlns:xlink="http://www.w3.org/1999/xlink" x="0px" y="0px"
	  viewBox="0 81.495 761.607 239.935" preserveAspectRatio="xMidYMid meet" enable-background="new 0 81.495 761.607 239.935"
	 xml:space="preserve">
<g id="__x0023_Layer_x0020_1">
	<path fill="#ADE1F9" d="M761.607,81.495v207.974c0,17.588-14.372,31.961-31.96,31.961H0V81.495H761.607z"/>
	<g id="_247264640">
		<path id="_247263824" fill="#ED3237" d="M639.081,129.469c3.347,0,6.234,1.247,8.663,3.675c2.428,2.428,3.675,5.447,3.675,8.86
			c0,3.478-1.181,6.431-3.609,8.859c-2.428,2.494-5.382,3.675-8.663,3.675c-3.412,0-6.3-1.247-8.662-3.675
			c-2.429-2.428-3.61-5.381-3.61-8.859c0-3.413,1.182-6.366,3.61-8.794c2.428-2.494,5.315-3.741,8.728-3.741H639.081z
			 M679.901,179.214L679.901,179.214v-7.613c0-7.219-5.841-13.06-13.06-13.06H611.32c-7.219,0-13.06,5.841-13.06,13.06v28.745
			h61.952v4.332h-61.952v7.613c0,7.219,5.841,13.06,13.06,13.06h55.521c7.219,0,13.06-5.841,13.06-13.06v-28.745h-61.952v-4.332
			H679.901z"/><!-- Made for www.totalmoney.sk -->
		<path id="_247264280" fill="#005481" d="M104.151,157.951c13.913,0,21.066,1.575,21.066,8.072v6.563h-19.032
			c-5.119,0-6.563,1.378-6.563,4.069c0,8.072,29.007,6.366,29.007,28.941c0,10.763-6.169,20.279-24.938,20.279
			c-12.338,0-22.051-1.97-22.051-8.072v-6.563h22.445c4.594,0,6.759-1.443,6.759-4.725c0-8.794-28.941-7.088-28.941-30.32
			c0-10.238,6.759-18.31,22.116-18.31L104.151,157.951z M136.046,164.448L136.046,164.448c0-3.938,1.772-5.972,5.775-5.972h10.959
			v52.764h25.595v8.27c0,4.004-1.969,5.841-5.972,5.841h-30.583c-3.938,0-5.775-1.969-5.775-5.972V164.448z M179.885,191.946
			L179.885,191.946c0-23.823,10.041-33.93,28.22-33.93c18.047,0,28.22,10.107,28.22,33.93c0,23.823-10.106,33.93-28.22,33.93
			C189.926,225.876,179.885,215.77,179.885,191.946z M197.145,191.946L197.145,191.946c0,15.357,3.675,20.345,10.96,20.345
			c7.219,0,10.96-4.988,10.96-20.345s-3.741-20.345-10.96-20.345C200.82,171.602,197.145,176.589,197.145,191.946z M267.039,208.354
			L267.039,208.354h0.394l10.632-47.318c0.525-2.297,1.378-2.494,4.2-2.494h13.585c0,0.722-0.131,1.575-0.328,2.625l-15.75,61.755
			c-0.656,2.429-1.969,2.691-4.922,2.691h-15.685c-2.822,0-4.2-0.328-4.791-2.691l-15.685-61.755
			c-0.197-0.919-0.328-1.903-0.328-2.625h13.65c2.822,0,3.675,0.197,4.2,2.494l10.763,47.318H267.039z M300.574,164.514
			L300.574,164.514c0-3.938,1.772-5.972,5.775-5.972h36.554v8.269c0,3.938-1.969,5.841-5.972,5.841h-19.623v12.01h21.92v13.585
			h-21.92v13.06h26.12v8.27c0,4.002-1.969,5.84-5.972,5.84H306.35c-3.938,0-5.775-1.969-5.775-5.972V164.514L300.574,164.514z
			 M391.862,201.791L391.862,201.791c-1.05-6.235-1.444-15.029-1.444-22.379v-20.87h15.16v61.821c0,3.019-1.443,5.25-5.447,5.25
			h-9.188c-3.019,0-4.2-0.328-5.513-2.953l-21.001-40.492h-0.394c1.05,7.941,1.378,16.472,1.378,22.379v20.869h-15.16V164.12
			c0-3.544,1.903-5.775,5.841-5.775h8.86c2.953,0,4.2,0.328,5.513,2.954l20.869,40.492H391.862z M435.308,158.017L435.308,158.017
			c13.913,0,21.066,1.575,21.066,8.072v6.563h-19.032c-5.119,0-6.563,1.378-6.563,4.069c0,8.072,29.008,6.366,29.008,28.942
			c0,10.763-6.169,20.279-24.938,20.279c-12.338,0-22.052-1.969-22.052-8.072v-6.563h22.445c4.594,0,6.76-1.443,6.76-4.726
			c0-8.794-28.941-7.087-28.941-30.32c0-10.238,6.759-18.31,22.116-18.31L435.308,158.017z M483.872,189.125L483.872,189.125
			l16.735-27.564c1.575-2.69,2.493-3.019,4.725-3.019h15.686c0,1.05-0.197,1.903-0.854,2.953l-19.229,29.335l20.147,31.632
			c0.525,0.854,0.919,1.903,0.919,2.953h-15.16c-3.15,0-4.069-0.197-5.841-3.019l-17.129-27.498v30.517h-16.735v-60.902
			c0-3.938,1.772-5.972,5.775-5.972h10.96V189.125L483.872,189.125z M559.803,158.279L559.803,158.279
			c2.822,0,4.2,0.328,4.791,2.691l15.554,61.755c0.197,0.919,0.328,1.903,0.328,2.625h-13.65c-2.822,0-3.675-0.196-4.2-2.493
			l-3.216-13.389h-15.554l-3.019,13.389c-0.525,2.297-1.378,2.493-4.2,2.493h-13.585c0-0.722,0.131-1.575,0.328-2.625l15.554-61.755
			c0.656-2.428,1.969-2.691,4.791-2.691H559.803z M546.35,196.934L546.35,196.934h10.369l-4.987-21.395h-0.395l-4.922,21.395H546.35
			z M557.112,153.357L557.112,153.357c-1.378,1.444-1.969,1.575-3.347,1.575h-6.497c0-0.394,0-1.05,0.394-1.575l8.335-10.895
			c1.181-1.443,1.903-1.772,3.149-1.772h6.366c0.722,0,1.115,0.329,1.115,0.722c0,0.525-0.196,0.853-1.05,1.903l-8.531,10.041
			H557.112z M91.55,247.073L91.55,247.073c4.594,0,7.744,0.132,7.744,2.429v1.378h-7.875c-2.363,0-3.872,1.05-3.872,2.69
			c0,5.447,13.191,3.872,13.191,12.666c0,4.266-2.822,7.547-10.172,7.547c-4.266,0-8.269,0-8.269-2.23v-1.443h8.794
			c3.15,0,4.594-1.116,4.594-3.479c0-4.988-13.125-4.004-13.125-12.732c0-4.199,3.413-6.76,9.057-6.76L91.55,247.073z
			 M109.073,281.266L109.073,281.266h-4.726v-33.93h2.363c1.641,0,2.363,0.919,2.363,2.166v0.854
			c1.443-1.707,3.806-3.282,6.759-3.282c6.169,0,9.057,5.054,9.057,13.323c0,8.269-2.888,13.322-9.057,13.322
			c-2.953,0-5.316-1.576-6.759-3.281v10.894V281.266z M114.323,250.814L114.323,250.814c-2.035,0-3.872,0.918-5.25,2.166v14.635
			c1.378,1.246,3.215,2.166,5.25,2.166c4.069,0,5.775-3.348,5.775-9.451s-1.641-9.582-5.775-9.582V250.814z M128.236,260.396
			L128.236,260.396c0-7.285,2.428-13.323,10.632-13.323c8.269,0,10.631,6.038,10.631,13.323c0,7.284-2.362,13.322-10.631,13.322
			C130.665,273.719,128.236,267.681,128.236,260.396z M144.578,260.396L144.578,260.396c0-6.432-1.247-9.845-5.775-9.845
			c-4.462,0-5.775,3.413-5.775,9.845c0,6.431,1.313,9.844,5.775,9.844C143.265,270.24,144.578,266.827,144.578,260.396z
			 M153.896,273.455L153.896,273.455v-26.119h2.363c1.575,0,2.231,1.247,2.362,3.216c2.035-2.69,4.726-3.479,6.76-3.479
			c0.919,0,1.838,0.197,1.838,1.313v3.347h-1.313c-3.806,0-5.775,0.92-7.285,2.166v19.557H153.896L153.896,273.455z
			 M174.044,244.383L174.044,244.383h-4.725v-2.953c0-1.575,0.59-2.428,2.166-2.428h2.56v5.446V244.383z M169.319,247.336
			L169.319,247.336h2.494c1.641,0,2.166,0.919,2.166,2.428v23.691h-4.725v-26.119H169.319z M185.595,247.336L185.595,247.336h5.644
			v3.479h-5.644v15.947c0,2.231,0.263,3.084,1.903,3.084h3.741v1.182c0,2.035-1.903,2.494-4.463,2.494
			c-5.316,0-5.841-2.953-5.841-6.76v-15.947h-3.281v-2.625l3.281-0.919l1.641-4.2c0.525-1.115,0.919-1.575,1.838-1.575h1.181v5.775
			V247.336z M211.846,269.978L211.846,269.978v1.181c0,2.035-2.756,2.494-8.532,2.494c-8.138,0-10.631-6.037-10.631-13.322
			s2.69-13.322,10.631-13.322c6.432,0,9.779,4.004,9.779,9.713c0,1.182,0,2.297-0.263,4.791h-15.226c0,6.037,2.035,8.4,6.3,8.4
			h8.006L211.846,269.978z M208.236,258.296L208.236,258.296c0.065-0.46,0.065-1.51,0.065-2.166c0-2.493-0.984-5.644-4.988-5.644
			c-3.609,0-5.513,2.297-5.775,7.81h10.631H208.236z M221.624,273.391L221.624,273.391h-4.331v-32.092
			c0-1.576,0.525-2.429,2.034-2.429h2.297v34.454V273.391z M226.94,244.383L226.94,244.383c-0.197,0.787-0.788,0.787-1.444,0.787
			h-1.706l0.59-5.381c0.131-0.854,0.722-0.919,1.378-0.919h1.641c0.394,0,0.656,0.132,0.656,0.394c0,0.263-0.065,0.459-0.131,0.787
			l-0.918,4.266L226.94,244.383z M230.353,273.391L230.353,273.391v-26.12h2.363c1.641,0,2.363,0.919,2.363,2.165v0.92
			c2.166-2.429,4.856-3.282,7.285-3.282c5.053,0,7.547,3.15,7.547,8.007v18.375h-4.66v-18.178c0-3.085-1.772-4.397-4.791-4.397
			c-1.969,0-4.003,0.919-5.513,2.165v20.346h-4.725H230.353z M239.672,245.039L239.672,245.039c-0.656,0-0.919-0.131-1.575-0.919
			l-4.2-4.987c-0.197-0.263-0.197-0.591-0.197-0.788h2.1c0.656,0,0.984,0.132,1.641,0.788l2.822,2.625l2.887-2.625
			c0.657-0.656,0.985-0.788,1.641-0.788h2.1c0,0.197,0,0.525-0.197,0.788l-4.2,4.987c-0.656,0.722-0.918,0.919-1.575,0.919h-1.313
			H239.672z M271.632,273.391L271.632,273.391c-1.706,0-2.297-0.92-2.297-2.166v-0.854c-2.166,2.428-4.988,3.281-7.285,3.281
			c-4.725,0-7.613-2.887-7.613-7.284c0-6.563,6.891-8.27,14.963-8.598v-2.429c0-3.543-2.429-4.527-5.579-4.527h-7.547v-1.379
			c0-2.297,2.691-2.428,8.204-2.428c6.038,0,9.582,2.625,9.582,8.072v18.311h-2.362H271.632z M269.335,260.725L269.335,260.725
			c-7.153,0.131-10.041,1.705-10.041,5.053c0,2.888,2.035,3.938,4.725,3.938c1.969,0,3.938-0.918,5.316-2.166V260.725
			L269.335,260.725z"/>
	</g>
</g>
</svg>
