<?xml version="1.0" encoding="utf-8"?>
<!-- Generator: Adobe Illustrator 19.0.0, SVG Export Plug-In . SVG Version: 6.00 Build 0)  -->
<svg version="1.1" id="Layer_1" xmlns="http://www.w3.org/2000/svg" xmlns:xlink="http://www.w3.org/1999/xlink" x="0px" y="0px"
	 viewBox="0 0 321.9 54" style="enable-background:new 0 0 321.9 54;" xml:space="preserve">
<style type="text/css">
	.st0{fill:#E8B909;}
	.st1{fill:#007638;}
	.st2{fill:#0061AF;}
	.st3{fill:#F37021;}
</style>
<path class="st0" d="M42.4,20L42.4,20L42.4,20L42.4,20c-0.3-0.2-0.7-0.3-1-0.2c-1.9-0.2-3.7-0.2-5.6-0.1h-0.1l-0.1,0
	c-0.9,0-1.9,0-2.9,0l-7.9-0.2c-1.9-0.1-3.9,0-5.9,0c-1.5,0-2.9,0.1-4.4,0.1c-1.5,0-5.2,0-7.3,0.1c-1.2,0-1.8,0-1.8,0
	c-0.3,0-0.6,0.4-0.6,0.7c0,0.2,0.1,0.3,0.4,0.4c0.2,0,1.5,0,3.9,0l2.4,0c0.6,0,1,0,1.1,0l0,0c1.8-0.2,3.6-0.2,5.3-0.2h0h0.1
	c1.1,0,2.3,0,3.5,0c0.2,0.1,0.5,0,0.7,0l0,0c0.1,0,0.2,0,0.3-0.1c0.3,0.1,0.6,0.1,0.9,0.1c0.3,0,0.6,0,0.9,0.1v0h0v0
	c0.3-0.1,0.5,0,0.7,0c0,0,0,0,0,0c0.1,0,0.2,0,0.3,0c2.3-0.1,4.8,0,7.9,0.3c0,0,1.5,0.2,1.5,0.2h0c1.3-0.1,2.7,0,4,0.1h0
	c1,0.1,1.9,0.1,2.8,0.1l0,0l0.1,0v0l0.5-0.4h0l0,0l0,0C42.7,20.6,42.6,20.2,42.4,20"/>
<path class="st1" d="M29.3,36.8L29.3,36.8l0-0.1l0-3.1v0v0c-0.1-0.5-0.1-1-0.1-1.5c0-0.6,0-1.2-0.1-1.8c0-0.8-0.2-1.7-0.3-2.5
	l-0.1-0.6l0-0.1l0,0c-0.1-0.1-0.2-0.3-0.2-0.5c0-0.2-0.1-0.3-0.2-0.5c-0.2-0.4-0.5-0.7-0.8-1.1l0,0c-0.1-0.1-0.2-0.1-0.2-0.2
	c0,0-0.1-0.1-0.1-0.1L27,24.8l0,0l-0.1,0c-0.3-0.2-0.5-0.3-0.8-0.4l0,0c-0.1-0.1-0.2-0.1-0.3-0.1v-0.1l-0.1,0L24.9,24l-0.1,0
	l-0.1,0.1c0,0,0,0-0.2,0c-0.1,0-0.1,0-0.2-0.1l-0.1,0l0,0c0,0,0,0-0.1,0l-0.3-0.1l0,0.1c-0.1,0-0.2,0-0.3,0.1h-0.1H23h-0.4l0,0.2
	l0,0c-0.2,0-0.3,0.1-0.4,0.1c0,0,0,0,0,0c-0.1,0-0.2,0.1-0.3,0.1c0,0-0.1,0-0.1,0l-0.1,0l0,0.1c-0.1,0.1-0.3,0.2-0.4,0.2L21.1,25
	l0.1,0.1c0,0-0.1,0-0.1,0.1H21h-0.2v0.2v0c0,0,0,0,0,0l-0.1-0.1c0,0-0.1,0.1-0.1,0.1c-0.1,0.2-0.3,0.4-0.5,0.6
	c-0.2,0.2-0.4,0.5-0.6,0.7l-0.1,0.1l0,0.1c0,0-0.1,0.1-0.2,0.2c-0.1,0.1-0.1,0.2-0.1,0.3c0,0,0,0.1,0,0.1c-0.1,0.1-0.1,0.2-0.1,0.3
	c0,0.1,0,0.1,0,0.1L18.9,28l0.1,0c0,0.1,0,0.2,0,0.2c0,0,0,0.1,0,0.1l-0.1,0l0,0.1c0,0.2,0,0.4,0,0.6c0,0.2-0.1,0.4,0,0.6
	c-0.1,0.1-0.1,0.3,0,0.4c0,0,0,0.1,0,0.1l-0.1,0.1l0.1,0.1c0.1,0.1,0,0.3,0,0.4c0,0.1-0.1,0.3,0,0.5c0,0,0,0,0,0c0,0,0,0.1,0,0.1
	c0,0.1,0,0.2,0,0.2l-0.1,0.2l0,0.1l0.1,0.1c0,0.1,0,0.2,0,0.3c0,0.1,0,0.2,0,0.2l-0.1,0.2l0.1,0.1v0c0,0.1,0,0.2,0.1,0.3
	c0,0,0,0,0,0.1l-0.2,0l0.1,0.2c0,0,0,0,0,0.1c0,0.1,0,0.2,0,0.3c-0.1,0.1,0,0.3,0,0.4c0,0,0,0.1,0,0.1c-0.2,0.2-0.1,0.4,0,0.5
	c-0.1,0.1-0.1,0.2,0,0.3l-0.2,0.1l0.2,0.2c0,0,0,0.1,0,0.2c0,0,0.1,0.1,0.1,0.1l-0.1,0c0,0,0,0,0,0l0.1,0.2l0,0c0,0.1,0,0.2,0.1,0.3
	c0,0,0,0.1,0,0.1l-0.1,0.1l0.1,0.1c0.1,0.1,0,0.2,0,0.4c0,0.2-0.1,0.4,0,0.6l-0.1,0.1l0.2,0.1c0,0,0,0,0,0c0,0.1-0.1,0.2,0,0.4l0,0
	c0,0.1,0,0.2,0,0.3c0,0.2,0,0.4,0,0.6l0,0.2l0,0c0,0.1,0,0.1,0,0.2l-0.1,0l0,0.1c0.1,0.2,0.1,0.3,0.1,0.5c0,0.4,0,0.8,0.3,1.1
	l0.1,0.1l0.1,0c0.2-0.1,0.3-0.3,0.3-0.5c0,0,0-0.1,0-0.1l0,0l0,0c-0.1-0.3-0.1-0.8,0-1.2c0-0.1,0-0.2,0-0.3l0-0.1l0,0
	c-0.1-0.1-0.1-0.3,0-0.4c0-0.1,0-0.3,0-0.5c0.1-0.7,0-1.6,0-2.3c0-0.3,0-0.6,0-0.9v0l0,0c0-0.4,0-0.7,0-1.1c0-0.3,0-0.7,0-1
	c0.1-0.4,0.1-0.7,0.1-1c0-0.2,0-0.3,0-0.5l0,0l0,0c0.1-0.1,0.1-0.2,0.1-0.3c0-0.1,0-0.3,0-0.4c0-0.1,0-0.2,0-0.3l0,0l0,0
	c0-0.1,0-0.2,0-0.3c0-0.1,0.1-0.3,0-0.4c0.1-0.3,0.2-0.6,0.2-0.9l0-0.1c0-0.1,0-0.1-0.1-0.2v0c0-0.1,0.1-0.3,0.2-0.4
	c0.1-0.2,0.2-0.3,0.2-0.6l0,0l0,0c0,0,0,0,0,0c0.1-0.1,0.2-0.1,0.2-0.3c0,0,0,0,0-0.1c0.1-0.1,0.2-0.2,0.3-0.3
	c0.1-0.2,0.2-0.3,0.4-0.3l0.1,0l0-0.1c0-0.1,0.1-0.2,0.3-0.3c0.1-0.1,0.2-0.1,0.3-0.3c0.1,0,0.2,0,0.2-0.1c0.2,0,0.3-0.1,0.4-0.2
	c0.2-0.1,0.2-0.2,0.3-0.1l0.1,0l0.1-0.1c0,0,0,0,0,0c0,0,0.1,0,0.2-0.1c0,0,0.1,0,0.1,0c0.1,0,0.1,0,0.1,0c0,0,0.1,0,0.2,0l0,0
	l0.1,0l0.2,0c0.5-0.1,0.9-0.1,1.3,0.1l0.1,0.1l0.1-0.1c0,0,0,0,0.1,0.1c0.1,0.1,0.3,0.3,0.5,0.3c0.1,0,0.1,0.1,0.2,0.1
	c0,0,0,0,0.1,0v0l0,0c0.1,0.1,0.2,0.2,0.4,0.2c0.3,0.3,0.6,0.7,0.6,0.9v0.2h0.1c0,0,0,0,0,0c0.1,0.2,0.1,0.5,0.3,0.7
	c-0.1,0.1,0,0.3,0,0.3c0,0,0,0,0,0.1l0,0.1l0.1,0.1l0,0c0,0.1,0,0.2,0.1,0.3c0,0,0,0,0,0.1l0,0.1c-0.2,0.3,0,0.5,0.1,0.5
	c0,0,0,0,0,0c-0.1,0.1-0.1,0.1-0.1,0.2l0,0.1l0.1,0.1l0,0c0,0,0,0,0,0c0,0,0,0.1,0,0.1l-0.1,0.1l0,0.2l0.1,0.1l0.1,0
	c0,0.1,0,0.1,0,0.2c0,0,0,0,0,0l0,0.1c-0.1,0.3-0.1,0.6,0,0.9c0,0,0,0,0,0c-0.1,0.1-0.1,0.2,0,0.3c0,0,0,0.1,0,0.1l0,0.2
	c0,0,0.1,0,0.1,0c0,0,0,0,0,0.1l0,0.2h0.1c0,0.1,0,0.1,0,0.2c0,0.1,0,0.2,0,0.2l0,0l0,0c-0.1,0.2,0,0.4,0.1,0.5c0,0,0,0.1,0,0.1
	c0,0-0.1,0.1-0.1,0.1c0,0,0,0,0,0l0,0l0,0.1c0,0.1,0,0.1,0.1,0.1l0,0c0,0,0,0.1,0,0.1v0.1l-0.1,0l0.1,0.1c0,0.1-0.1,0.1,0,0.2
	L28,34.4c0,0,0,0.1,0.1,0.1c-0.1,0.2,0.1,0.4,0.2,0.5c0,0,0.1,0.1,0.1,0.1h-0.1l0.1,0.2v0c0,0,0,0,0,0l-0.1,0.1l0,0.2l0,0
	c0,0.1,0,0.2,0,0.2c0,0,0,0,0,0c-0.1,0-0.1,0.1-0.1,0.2l0,0.2l0.1,0c0,0,0,0.1,0,0.1c0,0.1,0,0.1-0.1,0.2c0,0,0,0,0,0l0.2,0.1
	c0,0.1-0.1,0.1-0.1,0.2c0,0,0,0.1,0,0.1h0H28l0,0.2c0,0,0,0.1,0,0.1c0,0,0,0.1,0,0.1v0.2c0,0,0,0.1,0,0.1l0,0l0,0.1
	c0,0.1,0,0.1,0,0.2c0,0,0,0.1,0,0.1l-0.2,0.1l0.2,0.2v0c0,0.1,0,0.1,0,0.2h-0.1l0.2,0.3c0,0,0,0.1,0,0.1c0,0,0,0,0,0
	c-0.1,0.1-0.1,0.2-0.1,0.3c0,0,0,0.1,0,0.1c0,0,0,0,0,0l0.1,0.1c0,0-0.1,0.1-0.1,0.1c0,0.1,0,0.1,0,0.2h-0.2l0.2,0.2l-0.2,0.1
	l0.1,0.1v0.5c0,0.1,0,0.2,0.1,0.2c0,0,0,0,0,0c0.1,0.1,0.2,0.1,0.3,0v0.2l0.2-0.1c0.2,0,0.3-0.1,0.4,0l0.2,0l0-0.2
	c0.1-0.7,0.1-1.4,0.1-2c0-0.6,0-1.2,0-1.8C29.4,37,29.3,36.9,29.3,36.8"/>
<path class="st2" d="M16.1,36.8L16.1,36.8l0-0.1l0-3.1v0v0c-0.1-0.5-0.1-1-0.1-1.5c0-0.6,0-1.2-0.1-1.8c0-0.8-0.2-1.7-0.3-2.5
	l-0.1-0.6l0-0.1l0,0c-0.1-0.1-0.2-0.3-0.2-0.5c0-0.2-0.1-0.3-0.2-0.5c-0.2-0.4-0.5-0.7-0.8-1.1l0,0C14.1,25,14.1,25,14,24.9
	c0,0-0.1-0.1-0.1-0.1l-0.1-0.1l0,0l-0.1,0c-0.3-0.2-0.5-0.3-0.8-0.4l0,0c-0.1-0.1-0.2-0.1-0.3-0.1v-0.1l-0.1,0L11.7,24l-0.1,0
	l-0.1,0.1c0,0,0,0-0.2,0c-0.1,0-0.1,0-0.2-0.1l-0.1,0l0,0c0,0,0,0-0.1,0l-0.3-0.1l0,0.1c-0.1,0-0.2,0-0.3,0.1h-0.1H9.9H9.5l0,0.2
	l0,0c-0.2,0-0.3,0.1-0.4,0.1c0,0,0,0,0,0c-0.1,0-0.2,0.1-0.3,0.1c0,0-0.1,0-0.1,0l-0.1,0l0,0.1c-0.1,0.1-0.3,0.2-0.4,0.2L7.9,25
	L8,25.1c0,0-0.1,0-0.1,0.1H7.8H7.7v0.2v0c0,0,0,0,0,0l-0.1-0.1c0,0-0.1,0.1-0.1,0.1c-0.1,0.2-0.3,0.4-0.5,0.6
	c-0.2,0.2-0.4,0.5-0.6,0.7l-0.1,0.1l0,0.1c0,0-0.1,0.1-0.2,0.2C6,27.1,6,27.3,6,27.3c0,0,0,0.1,0,0.1c-0.1,0.1-0.1,0.2-0.1,0.3
	c0,0.1,0,0.1,0,0.1L5.7,28l0,0c0,0.1,0,0.2,0,0.2c0,0,0,0.1,0,0.1l-0.1,0l0,0.1c0,0.2,0,0.4,0,0.6c0,0.2-0.1,0.4,0,0.6
	c-0.1,0.1-0.1,0.3,0,0.4c0,0,0,0.1,0,0.1l-0.1,0.1l0.1,0.1c0.1,0.1,0,0.3,0,0.4c0,0.1-0.1,0.3,0,0.5c0,0,0,0,0,0c0,0,0,0.1,0,0.1
	c0,0.1,0,0.2,0,0.2l-0.1,0.2l0,0.1L5.4,32c0,0.1,0,0.2,0,0.3c0,0.1,0,0.2,0,0.2l-0.1,0.2l0.1,0.1v0c0,0.1,0,0.2,0.1,0.3
	c0,0,0,0,0,0.1l-0.2,0l0.1,0.2c0,0,0,0,0,0.1c0,0.1,0,0.2,0,0.3c-0.1,0.1,0,0.3,0,0.4c0,0,0,0.1,0,0.1c-0.2,0.2-0.1,0.4,0,0.5
	c-0.1,0.1-0.1,0.2,0,0.3l-0.2,0.1l0.2,0.2c0,0,0,0.1,0,0.2c0,0,0.1,0.1,0.1,0.1l-0.1,0c0,0,0,0,0,0h0l0.1,0.2l0,0
	c0,0.1,0,0.2,0.1,0.3c0,0,0,0.1,0,0.1l-0.1,0.1l0.1,0.1c0.1,0.1,0,0.2,0,0.4c0,0.2-0.1,0.4,0,0.6l-0.1,0.1l0.2,0.1c0,0,0,0,0,0
	c0,0.1-0.1,0.2,0,0.4l0,0c0,0.1,0,0.2,0,0.3c0,0.2,0,0.4,0,0.6l0,0.2l0,0c0,0.1,0,0.1,0,0.2l-0.1,0l0,0.1c0,0.2,0.1,0.3,0.1,0.5
	c0,0.4,0,0.8,0.3,1.1L6,41.3l0.1,0c0.2-0.1,0.3-0.3,0.3-0.5c0,0,0-0.1,0-0.1l0,0l0,0c-0.1-0.3-0.1-0.8,0-1.2c0-0.1,0-0.2,0-0.3
	l0-0.1l0,0c-0.1-0.1-0.1-0.3,0-0.4c0-0.1,0-0.3,0-0.5c0.1-0.7,0-1.6,0-2.3c0-0.3,0-0.6,0-0.9v0l0,0c0-0.4,0-0.7,0-1.1
	c0-0.3,0-0.7,0-1c0.1-0.4,0.1-0.7,0.1-1c0-0.2,0-0.3,0-0.5v0l0,0c0.1-0.1,0.1-0.2,0.1-0.3c0-0.1,0-0.3,0-0.4c0-0.1,0-0.2,0-0.3l0,0
	l0,0c0-0.1,0-0.2,0-0.3c0-0.1,0.1-0.3,0-0.4c0.1-0.3,0.2-0.6,0.2-0.9l0-0.1c0-0.1,0-0.1-0.1-0.2v0c0-0.1,0.1-0.3,0.2-0.4
	C6.9,27.8,7,27.6,7,27.3l0,0v0c0,0,0,0,0,0c0.1-0.1,0.2-0.1,0.2-0.3c0,0,0,0,0-0.1c0.1-0.1,0.2-0.2,0.3-0.3c0.1-0.2,0.2-0.3,0.4-0.3
	l0.1,0l0-0.1C8,26,8.1,26,8.2,25.9c0.1-0.1,0.2-0.1,0.3-0.3c0.1,0,0.2,0,0.2-0.1c0.2,0,0.3-0.1,0.4-0.2c0.2-0.1,0.2-0.2,0.3-0.1
	l0.1,0l0.1-0.1c0,0,0,0,0,0c0.1,0,0.1,0,0.2-0.1c0,0,0.1,0,0.1,0c0.1,0,0.1,0,0.1,0c0,0,0.1,0,0.2,0l0,0l0.1,0l0.2,0
	c0.5-0.1,0.9-0.1,1.3,0.1l0.1,0.1l0.1-0.1c0,0,0,0,0.1,0.1c0.1,0.1,0.3,0.3,0.5,0.3c0.1,0,0.1,0.1,0.2,0.1c0,0,0,0,0.1,0v0l0,0
	c0.1,0.1,0.2,0.2,0.4,0.2c0.3,0.3,0.6,0.7,0.6,0.9v0.2H14v0c0,0.2,0.1,0.5,0.3,0.7c-0.1,0.1,0,0.3,0,0.3c0,0,0,0,0,0.1l0,0.1
	l0.1,0.1l0,0c0,0.1,0,0.2,0.1,0.3c0,0,0,0,0,0.1l0,0.1c-0.1,0.3,0.1,0.5,0.2,0.5c0,0,0,0,0,0c-0.1,0.1-0.1,0.1-0.1,0.2l0,0.1
	l0.1,0.1l0,0c0,0,0,0,0,0c0,0,0,0.1,0,0.1l-0.1,0.1l0,0.2l0.1,0.1l0.1,0c0,0.1,0,0.1,0,0.2c0,0,0,0,0,0l0,0.1
	c-0.1,0.3-0.1,0.6,0,0.9c0,0,0,0,0,0c-0.1,0.1-0.1,0.2,0,0.3c0,0,0,0.1,0,0.1l0,0.2c0,0,0.1,0,0.1,0c0,0,0,0,0,0.1l0,0.2h0.1
	c0,0.1,0,0.1,0,0.2c0,0.1,0,0.2,0,0.2l0,0l0,0c0,0.2,0,0.4,0.1,0.5c0,0,0,0.1,0,0.1c0,0-0.1,0.1-0.1,0.1c0,0,0,0,0,0l0,0l0,0.1
	c0,0.1,0.1,0.1,0.1,0.1l0,0c0,0,0,0.1,0,0.1v0.1l-0.1,0l0.1,0.1c0,0.1-0.1,0.1,0,0.2l-0.1,0.1c0,0,0,0.1,0.1,0.1
	c-0.1,0.2,0.1,0.4,0.2,0.5c0,0,0.1,0.1,0.1,0.1h-0.1l0.1,0.2l0,0c0,0,0,0,0,0L15,35.4l0,0.2l0,0c0,0.1,0,0.2,0,0.2c0,0,0,0,0,0
	c-0.1,0-0.1,0.1-0.1,0.2l0,0.2l0.1,0c0,0,0,0.1,0,0.1c0,0.1,0,0.1-0.1,0.2h0c0,0,0,0,0,0l0.2,0.1c0,0.1-0.1,0.1-0.1,0.2
	c0,0,0,0.1,0,0.1h0h-0.2l0,0.2c0,0,0,0.1,0,0.1c0,0,0,0.1,0,0.1v0.2c0,0,0,0.1,0,0.1l0,0l0,0.1c0,0.1,0,0.1,0,0.2c0,0,0,0.1,0,0.1
	l-0.2,0.1l0.2,0.2c0,0,0,0,0,0c0,0.1-0.1,0.1-0.1,0.2h-0.1L15,39c0,0,0,0.1,0,0.1c0,0,0,0,0,0c-0.1,0.1-0.1,0.2-0.1,0.3
	c0,0,0,0.1,0,0.1v0l0.1,0.1c0,0-0.1,0.1-0.1,0.1c0,0.1,0,0.1,0,0.2h-0.2l0.2,0.2l-0.2,0.1l0.1,0.1v0.5c0,0.1,0,0.2,0.1,0.2
	c0,0,0,0,0,0c0.1,0.1,0.2,0.1,0.3,0v0.2l0.2-0.1c0.2,0,0.3-0.1,0.4,0l0.2,0l0-0.2c0.1-0.7,0.1-1.4,0.1-2c0-0.6,0-1.2,0-1.8
	C16.2,37,16.1,36.9,16.1,36.8"/>
<path class="st3" d="M42.2,37.1L42.2,37.1l0-0.1l0-3.1v0v0c-0.1-0.5-0.1-1-0.1-1.5c0-0.6,0-1.2-0.1-1.8c0-0.8-0.2-1.7-0.3-2.5
	l-0.1-0.6l0-0.1l0,0c-0.1-0.1-0.2-0.3-0.2-0.5c0-0.1-0.1-0.3-0.2-0.5c-0.2-0.4-0.5-0.7-0.8-1.1l0,0c-0.1-0.1-0.2-0.2-0.2-0.2
	c0,0-0.1-0.1-0.1-0.1L39.9,25l0,0l0,0c-0.3-0.2-0.5-0.3-0.8-0.4h0c-0.1-0.1-0.2-0.1-0.3-0.1v-0.1l-0.1,0l-0.7-0.1l-0.1,0l-0.1,0.1
	c0,0,0,0-0.2,0c-0.1,0-0.1-0.1-0.2-0.1l-0.1,0l0,0c0,0,0,0-0.1,0l-0.3-0.1l0,0.1c-0.1,0-0.2,0-0.3,0.1h-0.1H36h-0.4l0,0.2
	c0,0,0,0,0,0c-0.2,0-0.3,0.1-0.4,0.1c0,0,0,0,0,0c-0.1,0-0.2,0.1-0.3,0.1c0,0-0.1,0-0.1,0l-0.1,0l0,0.1c-0.1,0.1-0.3,0.2-0.4,0.2
	l-0.2,0.1l0.1,0c0,0-0.1,0-0.1,0.1h-0.1h-0.2v0.2v0c0,0,0,0,0,0l-0.1-0.1c0,0-0.1,0.1-0.1,0.1c-0.1,0.2-0.3,0.4-0.5,0.6
	c-0.2,0.2-0.4,0.5-0.6,0.7L32.4,27l0,0.1c0,0-0.1,0.1-0.2,0.2c-0.1,0.1-0.1,0.2-0.1,0.3c0,0,0,0.1,0,0.1C32,27.8,32,27.9,32,28
	c0,0.1,0,0.1,0,0.1l-0.1,0.1l0,0c0,0.1,0,0.2,0,0.2c0,0,0,0.1,0,0.1l-0.1,0l0,0.1c0,0.2,0,0.4,0,0.6c0,0.2,0,0.4,0,0.6
	c-0.1,0.1-0.1,0.3,0,0.4c0,0,0,0.1,0,0.1l-0.1,0.1l0.1,0.1c0.1,0.1,0,0.3,0,0.4c0,0.1-0.1,0.3,0,0.5c0,0,0,0,0,0c0,0,0,0.1,0,0.1
	c0,0.1,0,0.2,0,0.2l-0.1,0.2l0,0.1l0.1,0.1c0,0.1,0,0.2,0,0.3c0,0.1,0,0.2,0,0.2l-0.1,0.2l0.1,0.1c0,0,0,0,0,0c0,0.1,0,0.2,0.1,0.3
	c0,0,0,0,0,0.1l-0.2,0l0.1,0.2c0,0,0,0,0,0.1c0,0.1,0,0.2,0,0.3c-0.1,0.1,0,0.3,0,0.4c0,0,0,0.1,0,0.1c-0.2,0.2-0.1,0.4,0,0.5
	c-0.1,0.1-0.1,0.2,0,0.3l-0.2,0.1l0.2,0.2c0,0,0,0.1,0,0.2c0,0,0.1,0.1,0.1,0.1l-0.1,0c0,0,0,0,0,0l0.1,0.2l0,0c0,0.1,0,0.2,0.1,0.3
	c0,0,0,0.1,0,0.1l-0.1,0.1l0.1,0.1c0.1,0.1,0,0.2,0,0.4c0,0.2-0.1,0.4,0,0.6l-0.1,0.1l0.2,0.1c0,0,0,0,0,0c0,0.1-0.1,0.2,0,0.4l0,0
	c0,0.1,0,0.2,0,0.3c0,0.2,0,0.4,0,0.6l0,0.2l0,0c0,0.1,0,0.2,0,0.2l-0.1,0l0,0.1c0,0.2,0,0.3,0,0.5c0,0.4,0,0.8,0.3,1.1l0.1,0.1
	l0.1,0c0.3-0.1,0.3-0.3,0.3-0.5c0,0,0-0.1,0-0.1l0,0l0,0c-0.1-0.3-0.1-0.8,0-1.2c0-0.1,0-0.2,0-0.3l0,0l0,0c-0.1-0.1,0-0.3,0-0.4
	c0-0.1,0-0.3,0-0.5c0.1-0.7,0-1.6,0-2.3c0-0.3,0-0.6,0-0.9v0v0c0-0.4,0-0.7,0-1.1c0-0.3,0-0.7,0-1c0.1-0.4,0.1-0.7,0.1-1
	c0-0.2,0-0.3,0-0.5v0l0,0c0.1-0.1,0.1-0.2,0.1-0.3c0-0.1,0-0.3,0-0.4c0-0.1,0-0.2,0-0.3l0,0l0,0c0-0.1,0-0.2,0-0.3
	c0-0.1,0.1-0.3,0-0.4c0.1-0.3,0.2-0.6,0.2-0.9l0-0.1c0-0.1,0-0.1-0.1-0.2v0c0-0.1,0.1-0.3,0.2-0.4c0.1-0.2,0.2-0.3,0.3-0.6l0,0v0
	c0,0,0,0,0,0c0.1-0.1,0.2-0.1,0.2-0.3c0,0,0,0,0-0.1c0.1-0.1,0.2-0.2,0.3-0.3c0.1-0.2,0.2-0.3,0.4-0.3l0.1,0l0-0.1
	c0-0.1,0.1-0.2,0.3-0.3c0.1-0.1,0.2-0.1,0.3-0.3c0.1,0,0.2,0,0.2-0.1c0.1,0,0.3-0.1,0.4-0.2c0.2-0.1,0.2-0.2,0.3-0.1l0.1,0l0.1-0.1
	c0,0,0,0,0,0c0,0,0.1,0,0.2-0.1c0,0,0.1,0,0.1,0c0.1,0,0.1,0,0.1,0c0,0,0.1,0,0.2,0l0,0l0.1,0l0.2,0c0.5-0.1,0.9-0.1,1.3,0.1
	l0.1,0.1l0.1-0.1c0,0,0,0,0.1,0.1c0.1,0.1,0.3,0.3,0.5,0.3c0.1,0,0.1,0.1,0.2,0.1c0,0,0.1,0,0.1,0v0l0,0c0.1,0.1,0.2,0.2,0.4,0.2
	c0.3,0.3,0.6,0.7,0.6,0.9v0.2h0.1l0,0c0,0.2,0.1,0.5,0.3,0.7c0,0.1,0,0.3,0,0.3c0,0,0,0,0,0.1l0,0.1l0.1,0.1l0,0
	c0,0.1,0,0.2,0.1,0.3c0,0,0,0,0,0.1l0,0.1c-0.2,0.3,0.1,0.5,0.2,0.5c0,0,0,0,0,0c-0.1,0.1-0.1,0.1-0.1,0.2l0,0.1l0.1,0.1l0,0
	c0,0,0,0,0,0c0,0,0,0.1,0,0.1L40.8,30l0,0.2l0.1,0.1l0.1,0c0,0.1,0,0.1,0,0.2c0,0,0,0,0,0l0,0.1c-0.1,0.3-0.1,0.6,0,0.9c0,0,0,0,0,0
	c-0.1,0.1-0.1,0.2-0.1,0.3c0,0,0,0.1,0,0.1l0,0.2c0,0,0.1,0,0.1,0c0,0,0,0,0,0.1l0,0.2H41c0,0.1,0,0.1,0,0.2c0,0.1,0,0.2,0,0.2l0,0
	l0,0c0,0.2,0,0.4,0.1,0.5c0,0,0,0.1,0,0.1c0,0-0.1,0.1-0.1,0.1c0,0,0,0,0,0l0,0l0,0.1c0,0.1,0,0.1,0.1,0.1l0,0c0,0,0,0.1,0,0.1v0
	l-0.1,0l0.1,0.1c0,0.1-0.1,0.1,0,0.2l-0.1,0.1c0,0,0,0.1,0.1,0.1c-0.1,0.2,0.1,0.4,0.2,0.5c0,0,0.1,0.1,0.1,0.1h-0.1l0.1,0.2l0,0
	c0,0,0,0,0,0l-0.1,0.1l0,0.2l0,0c0,0.1,0,0.2,0,0.2c0,0,0,0,0,0c-0.1,0.1-0.1,0.1-0.1,0.2l0,0.2l0.1,0c0,0,0,0.1,0,0.1
	c0,0.1,0,0.1-0.1,0.2h0c0,0,0,0,0,0l0.2,0.1c0,0.1-0.1,0.1-0.1,0.2c0,0,0,0.1,0,0.1h0H41l0,0.2c0,0,0,0.1,0,0.1c0,0,0,0.1,0,0.1v0.2
	c0,0,0,0.1,0,0.1l0,0l0,0.1c0,0.1,0,0.1,0,0.2c0,0,0,0.1,0,0.1l-0.2,0.1l0.2,0.2c0,0,0,0,0,0c0,0,0,0.1,0,0.2h-0.1l0.2,0.3
	c0,0,0,0.1,0,0.1c0,0,0,0,0,0c-0.1,0.1-0.1,0.2-0.1,0.3c0,0,0,0.1,0,0.1l0,0l0.1,0.1c0,0-0.1,0.1-0.1,0.1c0,0.1,0,0.1,0,0.2h-0.2
	l0.2,0.2l-0.2,0.1l0.1,0.1V41c0,0.1,0,0.2,0.1,0.2c0,0,0,0,0,0c0.1,0.1,0.2,0.1,0.3,0v0.2l0.2-0.1c0.2,0,0.3-0.1,0.4,0l0.2,0l0-0.2
	c0.1-0.7,0.1-1.4,0.1-2c0-0.6,0-1.2,0-1.8C42.3,37.2,42.3,37.1,42.2,37.1"/>
<path class="st3" d="M0,54h47.4V6.6H0V54z M2.5,9.1h42.4v42.4H2.5V9.1z"/>
<g>
	<path class="st1" d="M142.7,44.7c-1,0-2,0-3.2-0.5c-1.4-0.6-1.5-1.3-1.5-4.2V29.6c0-0.2,0.1-0.3,0.3-0.3c0.7,0,1.1,0,1.9,0
		c1.7,0.1,2.7,0.4,3.6,1.1c3.3,2.3,4.3,6,4.3,8.7C148,43.7,144.7,44.7,142.7,44.7 M138,16c0-0.5,0.1-0.7,0.4-0.7
		c0.4-0.1,0.8-0.1,1.4-0.1c3.8,0,5.5,3.9,5.5,6.8c0,2.1-0.7,3.7-1.8,4.6c-0.7,0.7-1.7,0.8-3.2,0.8c-1,0-1.7,0-2.1-0.1
		c-0.2,0-0.3-0.1-0.3-0.5V16z M145.4,27.7c2.4-1.9,4.5-4.1,4.5-7.7c0-2.3-1.4-6.6-9.3-6.6c-1.5,0-3.2,0.1-5.3,0.1
		c-0.9,0-3.6-0.1-6-0.1h-0.6c-1.7,0-4.5,0.1-5,0.1c0,0-2.8-0.1-5-0.1c-0.6,0-0.9,0.1-0.9,0.4c0,0.3,0.3,0.4,0.7,0.4
		c0.5,0,1.2,0,1.6,0.1c1.4,0.3,1.8,1,1.9,2.5c0.1,1.4,0.1,2.6,0.1,9.3v5.5c0,4.5-0.1,8.5-2.5,10.9c-1.8,1.8-4.1,2.4-6.1,2.4
		c-1.5,0-3.5-0.2-5.5-1.8c-2.2-1.8-3.4-4.4-3.4-10.8v-6.1c0-6.7,0-7.9,0.1-9.3c0.1-1.5,0.4-2.3,1.6-2.5c0.5-0.1,0.8-0.1,1.3-0.1
		c0.4,0,0.7-0.1,0.7-0.4c0-0.3-0.3-0.4-1-0.4c-1.6,0-4.3,0.1-5.4,0.1c-1,0-2.8-0.1-4.6-0.1c-0.1,0-0.2,0-0.4,0c-0.2,0-0.3,0-0.5,0
		c-0.3,0-0.6,0-0.9,0c-0.3,0-2.3,0.1-2.7,0.1c-0.6,0-2.4-0.1-4.6-0.1c-0.8,0-1.2,0.1-1.2,0.4c0,0.3,0.3,0.3,0.7,0.3
		c0.6,0,1.2,0,1.8,0.2c0.4,0.1,0.6,0.5,0.6,0.8c0,0.4-0.2,1.1-0.4,1.6c-1.1,2.9-6.8,17-8.6,21.8h-0.2l-7.5-19.9
		c-0.6-1.6-1-2.8-1-3.4c0-0.4,0.1-0.7,0.4-0.9c0.3-0.3,1-0.3,1.7-0.3c0.4,0,0.7-0.1,0.7-0.4c0-0.3-0.5-0.4-1-0.4
		c-2.2,0-4.3,0.1-5.4,0.1c-1.5,0-4-0.1-6.4-0.1c-0.7,0-1.1,0-1.1,0.4c0,0.3,0.1,0.4,0.5,0.4c0.4,0,1.1,0,1.7,0.2
		c1.6,0.4,2.3,0.9,3.3,3.3l11.1,26.8c0.8,2.1,1.1,2.7,1.7,2.7c0.6,0,0.9-0.7,2-3.2c1-2.2,3-7,5.8-13.4c2.4-5.4,3.6-7.8,5.3-11.9
		c1.2-2.8,1.8-3.5,2.4-3.9c0.5-0.3,1.2-0.6,2-0.4c1.4,0.3,1.8,1,1.9,2.5c0.1,1.4,0.1,2.6,0.1,9.3v6.4c0,6.4,1.7,9.6,3.9,11.6
		c3.2,2.9,7.4,3,9.7,3c2.8,0,6-0.5,9.1-3.2c3.7-3.2,4.2-8.3,4.2-13.2v-4.7c0-6.7,0-7.9,0.1-9.3c0.1-1.5,0.4-2.3,1.6-2.5
		c1.2-0.2,2.4-0.2,3.2,0c1.4,0.3,1.8,1,1.9,2.5c0.1,1.4,0.1,2.6,0.1,9.3v7.7c0,4,0,7.5-0.2,9.3c-0.2,1.3-0.4,2.2-1.3,2.4
		c-0.4,0.1-0.9,0.2-1.6,0.2c-0.5,0-0.7,0.1-0.7,0.4c0,0.3,0.3,0.4,0.9,0.4c0.9,0,2-0.1,3-0.1c1,0,2,0,2.5,0c0.7,0,2,0,3.3,0.1
		c1.3,0,2.5,0.1,3.1,0.1c8.1,0,11.7-4.9,11.7-9.6C153.4,32,149,28.9,145.4,27.7"/>
	<path class="st1" d="M175.8,16c0-0.5,0.1-0.7,0.4-0.8c0.4-0.1,0.8-0.1,1.5-0.1c3.8,0,5.5,3.9,5.5,6.8c0,2.2-0.7,3.8-1.8,4.7
		c-0.8,0.7-1.7,0.8-3.2,0.8c-1,0-1.7,0-2.1-0.1c-0.2,0-0.3-0.1-0.3-0.5V16z M170.6,33.9c0,4,0,7.5-0.2,9.4c-0.2,1.3-0.4,2.2-1.3,2.4
		c-0.4,0.1-0.9,0.2-1.6,0.2c-0.5,0-0.7,0.1-0.7,0.4c0,0.3,0.3,0.4,0.9,0.4c1.8,0,4.5-0.1,5.5-0.1c1.3,0,5.3,0.3,6.4,0.3
		c8.1,0,11.8-4.9,11.8-9.6c0-5.2-4.4-8.3-8-9.5c2.4-1.9,4.5-4.1,4.5-7.7c0-2.3-1.4-6.6-9.4-6.6c-1.5,0-3.2,0.1-5.4,0.1
		c-0.9,0-3.6-0.1-6-0.1c-0.7,0-1,0.1-1,0.4c0,0.3,0.3,0.4,0.7,0.4c0.6,0,1.4,0,1.7,0.1c1.4,0.3,1.8,1,1.9,2.5
		c0.1,1.4,0.1,2.6,0.1,9.3V33.9z M185.9,39.2c0,4.6-3.4,5.6-5.3,5.6c-1,0-2,0-3.2-0.5c-1.4-0.6-1.5-1.3-1.5-4.2V29.6
		c0-0.2,0.1-0.3,0.3-0.3c0.7,0,1.1,0,1.9,0c1.7,0.1,2.7,0.4,3.7,1.1C185,32.8,185.9,36.5,185.9,39.2"/>
	<path class="st1" d="M207.3,33.2h-8.1c-0.2,0-0.2-0.1-0.2-0.3l4-10.8c0.1-0.2,0.1-0.4,0.3-0.4c0.1,0,0.2,0.2,0.2,0.4l3.9,10.8
		C207.6,33.1,207.6,33.2,207.3,33.2 M253.2,13.7c-2.2,0-3.8,0.1-4.3,0.1c-0.9,0-3-0.1-5.3-0.1c-0.7,0-1.1,0-1.1,0.4
		c0,0.3,0.2,0.4,0.7,0.4c0.6,0,1.7,0,2.3,0.3c1.1,0.4,1.4,1.3,1.5,3.9l0.4,19.6h-0.2c-0.8-0.7-6.6-7-9.6-10
		c-6.4-6.3-13-13.5-13.6-14c-0.7-0.8-1.1-1.4-1.6-1.4c-0.4,0-0.6,0.6-0.6,1.5l-0.4,25.9c0,3.8-0.5,5.4-1.4,5.4
		c-1.7,0-2.2-1.1-3.7-4.7c-2.8-6.6-9.8-24.5-10.9-26.9c-0.4-1-0.7-1.4-1.1-1.4c-0.4,0-0.7,0.5-1.2,1.7l-11,27.5
		c-0.9,2.2-1.7,3.7-3.7,3.9c-0.4,0-0.4,0.1-0.8,0.1c-0.4,0-0.5,0.1-0.5,0.4c0,0.3,0.3,0.4,0.8,0.4c2.3,0,4.1-0.1,4.6-0.1
		c1.4,0,3.2,0.1,4.6,0.1c0.5,0,0.7-0.1,0.7-0.4c0-0.3-0.1-0.4-0.6-0.4h-0.7c-1.4,0-1.8-0.6-1.8-1.3c0-0.5,0.2-1.6,0.7-2.7l2.4-6.3
		c0.1-0.3,0.2-0.4,0.4-0.4h9.8c0.2,0,0.4,0.1,0.4,0.3l3.5,9.3c0.2,0.5-0.1,0.9-0.4,1c-0.4,0-0.6,0.1-0.6,0.4c0,0.3,0.5,0.3,1.3,0.3
		c3.5,0.1,6.7,0.1,8.3,0.1c1,0,5,0,7.9,0c0.6,0,1-0.1,1-0.4c0-0.3-0.3-0.4-0.7-0.4c-0.7,0-1.5,0-2.3-0.3c-0.9-0.3-1.4-1.4-1.5-4.9
		l-0.5-18.4h0.1c0.8,0.8,5.6,6.3,10.4,11c4.6,4.5,10.1,10.2,12.9,12.9c0.5,0.5,1,1,1.5,1c0.4,0,0.6-0.4,0.6-1.3l0.5-27.6
		c0-2.5,0.4-3.4,1.6-3.7c0.5-0.1,0.9-0.1,1.3-0.1c0.5,0,0.8-0.1,0.8-0.4C254.2,13.8,253.8,13.7,253.2,13.7"/>
	<path class="st1" d="M263.2,26.3c0-6.7,0-7.9,0.1-9.3c0.1-1.5,0.4-2.3,1.6-2.5c0.5-0.1,0.8-0.1,1.2-0.1c0.3,0,0.6-0.1,0.6-0.4
		c0-0.3-0.3-0.4-0.9-0.4c-1.5,0-4.2,0.1-5.3,0.1c-1.1,0-3.8-0.1-6.1-0.1c-0.7,0-1,0.1-1,0.4c0,0.3,0.3,0.4,0.7,0.4
		c0.6,0,1.4,0,1.7,0.1c1.4,0.3,1.8,1,1.9,2.5c0.1,1.4,0.1,2.6,0.1,9.3V34c0,4,0,7.5-0.2,9.3c-0.2,1.3-0.4,2.2-1.3,2.4
		c-0.4,0.1-0.9,0.2-1.6,0.2c-0.5,0-0.7,0.1-0.7,0.4c0,0.3,0.3,0.4,0.9,0.4c1.8,0,4.5-0.1,5.5-0.1c1.1,0,3.8,0.1,6.3,0.1
		c0.5,0,0.8-0.1,0.8-0.4c0-0.2-0.2-0.4-0.6-0.4c-0.6,0-1.5-0.1-2.1-0.2c-1.1-0.2-1.5-1.1-1.6-2.4c-0.1-1.9-0.1-5.3-0.1-9.4v-4h0.2
		l0.5,0.7c0.9,1.3,9.5,11.4,11.5,13.1c1.9,1.7,3.1,2.6,5.4,2.8c0.9,0.1,1.7,0.1,3,0.1h3.8c0.8,0,1.1-0.1,1.1-0.4
		c0-0.3-0.3-0.4-0.6-0.4c-0.5,0-1.4-0.1-2.7-0.7c-2.4-0.9-4.3-2.9-6.3-4.7c-1.7-1.6-10.3-10.9-11.9-12.9c1.5-1.6,8.1-8.1,9.4-9.4
		c1.9-1.8,3.4-2.8,4.7-3.3c0.8-0.3,1.9-0.5,2.5-0.5c0.4,0,0.7-0.1,0.7-0.4c0-0.3-0.3-0.4-0.7-0.4c-1.4,0-3.8,0.1-5.1,0.1
		c-1.2,0-3.6-0.1-4.5-0.1c-0.5,0-0.7,0.1-0.7,0.4c0,0.3,0.2,0.4,0.6,0.4c0.4,0.1,0.6,0.4,0.6,0.9c0,0.7-1,1.8-2.2,3.3
		c-1.3,1.5-7.7,8-9.1,9.6h-0.2V26.3z"/>
	<path class="st1" d="M298.6,33.2c-0.2,0-0.2-0.1-0.2-0.3l4-10.7c0-0.2,0.1-0.4,0.3-0.4c0.1,0,0.2,0.2,0.2,0.4l3.9,10.8
		c0,0.1,0,0.3-0.2,0.3H298.6z M307.4,35.3c0.2,0,0.3,0.1,0.4,0.3l3.5,9.2c0.2,0.5-0.1,0.9-0.4,1c-0.4,0-0.6,0.1-0.6,0.4
		c0,0.3,0.5,0.3,1.3,0.3c3.5,0.1,6.7,0.1,8.2,0.1c1.6,0,2-0.1,2-0.4c0-0.3-0.2-0.4-0.6-0.4c-0.5,0-1.2,0-1.8-0.2
		c-0.9-0.3-2.2-0.9-3.8-4.8c-2.8-6.6-9.8-24.4-10.8-26.8c-0.4-1-0.7-1.4-1.1-1.4c-0.4,0-0.7,0.5-1.2,1.7l-10.9,27.4
		c-0.9,2.2-1.7,3.7-3.7,3.9c-0.4,0-1,0.1-1.4,0.1c-0.4,0-0.5,0.1-0.5,0.4c0,0.3,0.3,0.4,0.8,0.4c2.3,0,4.7-0.1,5.1-0.1
		c1.3,0,3.2,0.1,4.6,0.1c0.5,0,0.7-0.1,0.7-0.4c0-0.3-0.1-0.4-0.7-0.4H296c-1.3,0-1.7-0.6-1.7-1.4c0-0.5,0.2-1.6,0.7-2.7l2.4-6.2
		c0.1-0.3,0.2-0.3,0.4-0.3H307.4z"/>
	<path class="st1" d="M108.2,9.4c0-0.3,0.5-0.5,1-0.9c2.2-1.6,5-4.4,5.4-5c0.5-0.7,0.5-1.1,0.8-1.1c0.2,0,0.4,0.1,0.9,0.3
		c0.6,0.3,2.3,0.9,3.3,1.2c0.4,0.1,0.6,0.2,0.6,0.4c0,0.3-0.7,0.8-1.6,1.2c-0.8,0.4-9.2,4-9.9,4C108.5,9.8,108.2,9.7,108.2,9.4"/>
</g>
</svg>
